<svg width="108" height="108" viewBox="0 0 108 108" fill="none" xmlns="http://www.w3.org/2000/svg" class="dark:hue-rotate-180 dark:invert dark:mix-blend-plus-lighter"><g class="md:group-hover:scale-110 origin-center transition-all duration-200 ease-in-out"><path d="M74 22H34C28.4772 22 24 26.4772 24 32V56C24 61.5228 28.4772 66 34 66H74C79.5228 66 84 61.5228 84 56V32C84 26.4772 79.5228 22 74 22Z" fill="url(#paint0_linear_297_5)"></path><path d="M56 37H34C32.8954 37 32 37.8954 32 39C32 40.1046 32.8954 41 34 41H56C57.1046 41 58 40.1046 58 39C58 37.8954 57.1046 37 56 37Z" fill="#CAEADC"></path><path d="M50 44H34C32.8954 44 32 44.8954 32 46C32 47.1046 32.8954 48 34 48H50C51.1046 48 52 47.1046 52 46C52 44.8954 51.1046 44 50 44Z" fill="#CAEADC"></path><path d="M24 42V32C24 26.4772 28.4772 22 34 22H74C79.5228 22 84 26.4772 84 32V54" stroke="#E5E7EB" stroke-width="1.5" stroke-linecap="round"></path><rect x="32" y="30" width="6" height="4" rx="1" fill="#CAEADC"></rect><rect x="40" y="30" width="6" height="4" rx="1" fill="#CAEADC"></rect></g><g class="md:group-hover:scale-125 md:group-hover:rotate-12 origin-[60px_60px] transition-all duration-200 ease-in-out"><path d="M64 57.2a9.2 9.2 0 019.2-9.2h9.2a9.2 9.2 0 019.2 9.2v4.6a9.2 9.2 0 01-9.2 9.2h-9.2a9.2 9.2 0 01-9.2-9.2v-4.6z" fill="#5D79DF" stroke="#F3F4F6" stroke-width="2.5" class="md:group-hover:stroke-[#E5E7EB] transition-all duration-200 ease-in-out"></path><path d="M74.925 62.375v-5.75L81.25 59.5l-6.325 2.875z" fill="#fff" stroke="#fff" stroke-width="1.25" stroke-linejoin="round"></path></g><g class="md:group-hover:scale-125 md:group-hover:-rotate-12 md:group-hover:translate-y-1 origin-[30px_60px] transition-all duration-200 ease-in-out"><path d="M45 66c0-9.389-7.611-17-17-17s-17 7.611-17 17 7.611 17 17 17 17-7.611 17-17z" fill="#2DD28D" stroke="#F3F4F6" stroke-width="2.5" class="md:group-hover:stroke-[#E5E7EB] transition-all duration-200 ease-in-out"></path><path d="M32.667 60h-9.334c-.736 0-1.333.597-1.333 1.333v9.334c0 .736.597 1.333 1.333 1.333h9.334c.736 0 1.333-.597 1.333-1.333v-9.334c0-.736-.597-1.333-1.333-1.333z" stroke="#fff" stroke-width="1.33333" stroke-linecap="round" stroke-linejoin="round"></path><path d="M26 65.333a1.333 1.333 0 100-2.666 1.333 1.333 0 000 2.666zM34 68l-2.057-2.057a1.334 1.334 0 00-1.886 0L24 72" stroke="#fff" stroke-width="1.33333" stroke-linecap="round" stroke-linejoin="round"></path></g><defs><linearGradient id="paint0_linear_297_5" x1="54" y1="22" x2="54" y2="66" gradientUnits="userSpaceOnUse"><stop stop-color="#fff"></stop><stop offset="1" stop-color="#fff" stop-opacity="0"></stop></linearGradient></defs></svg>