<svg width="169" height="45" viewBox="0 0 169 45" fill="none" xmlns="http://www.w3.org/2000/svg">
<path d="M135.063 34.0455C134.863 34.0455 134.725 33.8874 134.725 33.6872V24.7608C134.725 24.5605 134.884 24.4025 135.063 24.4025H136.043C136.243 24.4025 136.38 24.5605 136.38 24.7608V25.2666C136.517 25.0664 137.149 24.3287 138.604 24.3287C139.731 24.3287 140.564 24.7713 141.165 25.7093C141.165 25.7093 141.892 24.3498 144.01 24.3287C146.139 24.3076 147.362 25.5617 147.362 27.9646V33.6767C147.362 33.8769 147.204 34.035 147.024 34.035H145.97C145.77 34.035 145.633 33.8769 145.633 33.6767V28.1648C145.633 26.6894 145.022 25.8674 143.726 25.8674C142.482 25.8674 141.881 26.8053 141.881 28.5442V33.6767C141.881 33.8769 141.723 34.035 141.544 34.035H140.501C140.301 34.035 140.164 33.8769 140.164 33.6767V28.1648C140.164 26.6894 139.584 25.8674 138.351 25.8674C137.044 25.8674 136.422 26.8053 136.422 28.5442V33.6767C136.422 33.8769 136.264 34.035 136.085 34.035H135.063V34.0455ZM128.771 32.6017C130.51 32.6017 131.806 31.2633 131.806 29.2082C131.806 27.1531 130.51 25.8357 128.771 25.8357C127.032 25.8357 125.715 27.1531 125.715 29.2082C125.715 31.2633 127.032 32.6017 128.771 32.6017ZM128.771 34.1404C126.073 34.1404 124.071 32.0958 124.071 29.2082C124.071 26.3521 126.073 24.2971 128.771 24.2971C131.469 24.2971 133.45 26.3205 133.45 29.2082C133.45 32.0853 131.469 34.1404 128.771 34.1404ZM120.73 34.1615C117.758 34.1615 115.893 32.1064 115.893 29.2293C115.893 26.3521 117.758 24.3181 120.73 24.3181C121.626 24.3181 122.427 24.4973 123.112 24.8767C123.228 24.9399 123.312 25.0769 123.312 25.2139V26.5735C123.312 26.7737 123.069 26.8791 122.932 26.7315C122.342 26.1203 121.552 25.8357 120.709 25.8357C118.812 25.8357 117.653 27.132 117.653 29.2082C117.653 31.2843 118.812 32.6017 120.709 32.6017C121.552 32.6017 122.353 32.3382 122.954 31.727C123.091 31.59 123.333 31.6848 123.333 31.8851V33.2446C123.333 33.3816 123.238 33.5186 123.133 33.5818C122.448 33.9612 121.615 34.1615 120.73 34.1615ZM114.417 34.1193C113.816 34.1193 113.258 33.6556 113.258 32.96C113.258 32.2961 113.795 31.8007 114.417 31.8007C115.039 31.8007 115.534 32.2645 115.534 32.96C115.534 33.645 115.018 34.1193 114.417 34.1193ZM106.039 34.1615C103.741 34.1615 101.823 33.8242 100.379 33.0233C100.179 32.9073 100.105 32.6122 100.2 32.4015L101.222 30.1672C101.338 29.9248 101.655 29.83 101.897 29.967C103.214 30.6836 104.595 30.9049 106.218 30.9049C108.199 30.9049 108.937 30.3675 108.937 29.5454C108.937 27.1109 99.9788 29.5876 99.9788 23.6753C99.9788 20.8614 102.519 18.8801 106.84 18.8801C108.684 18.8801 110.581 19.3016 111.993 19.9972C112.214 20.1131 112.32 20.3977 112.214 20.619L111.192 22.8216C111.076 23.064 110.792 23.1589 110.549 23.0429C109.232 22.4001 108.073 22.1366 106.85 22.1366C104.932 22.1366 104.089 22.7373 104.089 23.5172C104.089 26.0571 113.047 23.6015 113.047 29.4506C113.036 32.2223 110.476 34.1615 106.039 34.1615ZM92.3171 34.1615C90.0196 34.1615 88.1015 33.8242 86.6577 33.0233C86.4575 32.9073 86.3837 32.6122 86.4785 32.4015L87.5008 30.1672C87.6167 29.9248 87.9329 29.83 88.1753 29.967C89.4927 30.6836 90.8732 30.9049 92.4962 30.9049C94.4775 30.9049 95.2153 30.3675 95.2153 29.5454C95.2153 27.1109 86.2572 29.5876 86.2572 23.6753C86.2572 20.8614 88.7971 18.8801 93.118 18.8801C94.9623 18.8801 96.8593 19.3016 98.2715 19.9972C98.4929 20.1131 98.5982 20.3977 98.4928 20.619L97.4706 22.8216C97.3546 23.064 97.0701 23.1589 96.8277 23.0429C95.5103 22.4001 94.3511 22.1366 93.1286 22.1366C91.2105 22.1366 90.3674 22.7373 90.3674 23.5172C90.3674 26.0571 99.3254 23.6015 99.3254 29.4506C99.3149 32.2223 96.7539 34.1615 92.3171 34.1615ZM74.6961 25.1929H80.9351C80.777 23.3486 79.7547 22.1155 77.8577 22.1155C75.9713 22.1155 74.8331 23.2959 74.6961 25.1929ZM78.4268 34.1404C73.7897 34.1404 70.5121 31.3476 70.5121 26.4892C70.5121 22.0523 73.3049 18.859 77.8156 18.859C82.1892 18.859 84.8766 21.7783 84.8766 26.5313C84.8766 26.7526 84.8556 27.0583 84.8345 27.3112C84.8134 27.5325 84.6553 27.6906 84.434 27.6906H74.7172C74.9174 29.4927 76.3823 30.8628 79.017 30.8628C80.092 30.8628 81.1142 30.6309 82.5581 29.9248C82.8005 29.7984 83.1166 29.8827 83.2326 30.1251L84.2548 32.3488C84.3708 32.5912 84.2759 32.8546 84.0546 32.9811C82.7372 33.7188 80.6295 34.1404 78.4268 34.1404ZM55.294 33.9191C54.9989 33.9191 54.7776 33.6977 54.7776 33.4132V14.8015C54.7776 14.5065 54.9989 14.2851 55.294 14.2851H58.5716C58.8667 14.2851 59.088 14.5065 59.088 14.8015V20.3028C60.2051 19.2173 61.2485 18.859 63.1455 18.859C66.6655 18.859 68.6995 20.9141 68.6995 25.4142V33.4027C68.6995 33.6872 68.4781 33.9085 68.1831 33.9085H64.9055C64.6104 33.9085 64.3891 33.6872 64.3891 33.4027V26.0887C64.3891 23.6753 63.6935 22.5792 62.0284 22.5792C60.047 22.5792 59.088 23.8544 59.088 26.5735V33.4027C59.088 33.6872 58.8667 33.9085 58.5716 33.9085H55.294V33.9191ZM47.5585 34.2036C41.5829 34.2036 37.125 30.0302 37.125 24.2338C37.125 18.4375 41.604 14.2641 47.6006 14.2851C49.3185 14.2641 50.9098 14.5908 52.2799 15.2231C52.5012 15.3285 52.6593 15.5603 52.6593 15.8238V19.0382C52.6593 19.5019 52.1007 19.7443 51.7424 19.4597C50.6042 18.5428 49.2869 18.0791 47.8009 18.0791C44.186 18.0791 41.6251 20.6295 41.6251 24.2549C41.6251 27.8908 44.186 30.4307 47.8009 30.4307C49.2974 30.4307 50.5937 29.967 51.7319 29.0079C52.1007 28.7023 52.6382 28.9552 52.6382 29.419V32.6544C52.6382 32.8968 52.4801 33.1286 52.2588 33.234C50.9098 33.8664 49.2974 34.2036 47.5585 34.2036Z" fill="#2E2C29"/>
<path d="M31.2122 40H34.1947C44.1223 39.8208 44.4068 37.8817 44.4068 37.7447C44.4068 37.1123 44.3647 36.4905 44.2698 35.9109C38.9793 34.5619 35.1853 29.83 35.1853 24.3181C35.1853 21.3883 36.0706 18.7431 37.9781 16.5299L35.9968 15.2231C37.409 14.2008 38.3259 12.5357 38.3259 10.6598C38.3259 8.29905 36.8715 6.26505 34.8059 5.43248C34.1525 5.16901 29.5576 20.3028 29.5576 20.3028C29.5365 20.6506 29.5365 21.1038 29.5365 21.6518C29.5365 23.1589 33.2251 22.927 33.0249 24.2549C32.7298 26.2362 32.6665 27.7538 30.9592 32.5174C29.8105 35.7423 22.1277 32.5174 21.5796 34.0982C21.2002 35.1837 21 36.4168 21 37.7447C21 37.8817 21.2845 39.8208 31.2122 40Z" fill="#5D9948"/>
<path d="M32.4876 32.2851C33.1199 29.3975 33.6785 26.3201 34.0262 24.4758C34.4478 22.1784 30.97 21.7673 29.5367 21.5566C29.4734 23.5168 28.9254 26.7101 24.2567 30.2722C23.0026 31.2313 22.0646 32.6013 21.5166 34.2664C22.7813 34.8777 24.4569 35.2466 27.0495 35.2466C28.7147 35.2466 31.792 35.4468 32.4876 32.2851ZM34.9326 20.2814C35.4806 18.8481 35.4174 17.8785 35.4174 17.8785L33.1199 15.2016C35.5649 14.1583 37.0404 12.1875 37.0404 9.90058C37.0404 8.07735 36.1656 6.44383 34.8272 5.42155C34.1738 5.15808 33.4571 5 32.7089 5C29.5999 5 27.0811 7.51879 27.0811 10.6383C27.0811 12.5142 27.998 14.1794 29.4102 15.2016L25.3528 17.8785C25.3528 18.7743 25.5635 19.5015 25.9851 20.2814H34.9326Z" fill="#81B64C"/>
<path d="M32.3819 6.15931C35.6278 6.66517 30.8853 10.4381 29.3888 10.2589C27.9661 10.0798 29.3361 5.68506 32.3819 6.15931Z" fill="#B2E068"/>
</svg>
