<svg fill="none" height="80" viewBox="0 0 80 80" width="80" xmlns="http://www.w3.org/2000/svg"><circle cx="40.0002" cy="40" r="39.5" stroke="#414141"></circle><circle cx="1" cy="1" fill="white" r="1" transform="matrix(1 0 0 -1 39.0002 8)"></circle><circle cx="1" cy="1" fill="white" r="1" transform="matrix(1 0 0 -1 39.0002 74)"></circle><circle cx="1" cy="1" fill="white" r="1" transform="matrix(1 0 0 -1 72.0002 41)"></circle><circle cx="1" cy="1" fill="white" r="1" transform="matrix(1 0 0 -1 6.00024 41)"></circle><path fill="url(#paint0_radial_1635_1039)" fill-opacity="0.6" stroke="#F48CBF" d="M51.3602 63.8063L32.6051 69.1202C30.7148 69.6558 28.6861 69.0347 27.4196 67.5327L13.5953 51.1373C12.59 49.945 12.1986 48.3518 12.5369 46.8294L16.5096 28.9553C17.3686 25.0905 22.165 23.7097 24.9474 26.526L53.5541 55.4816C56.2275 58.1876 55.02 62.7693 51.3602 63.8063Z"></path><circle cx="1" cy="1" fill="white" r="1" transform="matrix(1 0 0 -1 39.0002 41)"></circle><defs><radialGradient cx="0" cy="0" gradientTransform="translate(40.0002 41.5) rotate(90) scale(41.5 42.283)" gradientUnits="userSpaceOnUse" id="paint0_radial_1635_1039" r="1"><stop stop-color="#F48CBF"></stop><stop offset="0.13" stop-color="#F48CBF" stop-opacity="0.87"></stop><stop offset="1" stop-color="#F48CBF" stop-opacity="0"></stop></radialGradient></defs></svg>