<svg width="85" height="45" viewBox="0 0 85 45" fill="#dddddda3"
 xmlns="http://www.w3.org/2000/svg">
<g clip-path="url(#clip0_3737_17792)">
<path d="M18.9094 44.4292V40.4803L18.8322 40.5142C17.945 40.9452 16.9797 41.1909 15.995 41.2366C14.9715 41.317 13.9543 41.0163 13.138 40.3918C12.555 39.9405 12.1216 39.323 11.8945 38.6203C11.6439 37.8546 11.6149 37.0333 11.8111 36.2518C11.9931 35.4525 12.4394 34.7386 13.0774 34.2261C13.6432 33.7514 14.3346 33.4524 15.067 33.3655C16.3616 33.2215 17.6697 33.4675 18.8244 34.0721L18.9094 34.1163V30.1453L18.7299 30.0971C17.5738 29.7246 16.36 29.5652 15.1473 29.6266C14.0428 29.655 12.955 29.9047 11.948 30.3608C10.9314 30.8278 10.035 31.5224 9.32796 32.3913C8.25342 33.7553 7.65705 35.4366 7.63115 37.1749C7.60526 38.9131 8.15129 40.6115 9.18472 42.0071C10.2305 43.349 11.6986 44.296 13.3497 44.6937C15.0899 45.1184 16.9134 45.0537 18.6205 44.5089L18.9094 44.4292" fill="#02C8FF"/>
<path d="M57.8677 44.4292V40.4803L57.7906 40.5142C56.9033 40.9452 55.938 41.1909 54.9533 41.2366C53.9298 41.317 52.9127 41.0163 52.0963 40.3918C51.5134 39.9405 51.0799 39.323 50.8528 38.6203C50.6022 37.8546 50.5733 37.0333 50.7694 36.2518C50.9514 35.4525 51.3978 34.7386 52.0357 34.2261C52.6015 33.7514 53.2929 33.4524 54.0254 33.3655C55.32 33.2215 56.628 33.4675 57.7827 34.0721L57.8677 34.1163V30.1453L57.6882 30.0971C56.5321 29.7246 55.3184 29.5652 54.1056 29.6266C53.0011 29.655 51.9133 29.9047 50.9063 30.3608C49.8897 30.8278 48.9934 31.5224 48.2863 32.3913C47.2118 33.7553 46.6154 35.4366 46.5895 37.1749C46.5636 38.9131 47.1096 40.6115 48.1431 42.0071C49.1888 43.349 50.657 44.296 52.3081 44.6937C54.0482 45.1184 55.8718 45.0537 57.5788 44.5089L57.8677 44.4292" fill="#02C8FF"/>
<path fill-rule="evenodd" clip-rule="evenodd" d="M32.8116 41.1513L32.7966 44.5524L33.0445 44.595C33.8229 44.7411 34.6084 44.8421 35.3978 44.899C36.089 44.9632 36.784 44.9766 37.4771 44.9392C38.1398 44.8918 38.7954 44.7671 39.429 44.5697C40.1735 44.3586 40.8641 43.9895 41.454 43.4874C41.9851 43.0325 42.391 42.4486 42.633 41.7916C43.0552 40.6915 43.0467 39.472 42.6094 38.3779C42.3794 37.8101 42.0169 37.306 41.5524 36.9079C41.1034 36.502 40.5755 36.1937 40.0019 36.0024L37.4441 35.0503C37.1385 34.92 36.8905 34.683 36.746 34.3832C36.6904 34.26 36.664 34.1257 36.6689 33.9906C36.6738 33.8555 36.7099 33.7235 36.7743 33.6047C36.8202 33.5205 36.8777 33.4431 36.9451 33.375C37.0546 33.2628 37.1823 33.1702 37.3229 33.1011C37.6086 32.9589 37.9171 32.8697 38.2343 32.835C38.7755 32.7567 39.3255 32.7625 39.865 32.8524C40.5025 32.9218 41.1345 33.0347 41.7555 33.1918L41.8877 33.2211V30.0837L41.6437 30.0308C41.0098 29.8786 40.3675 29.7639 39.7202 29.6874C38.8812 29.575 38.0313 29.5713 37.1914 29.6763C36.1274 29.7741 35.1153 30.1825 34.2802 30.8511C33.7141 31.2968 33.2834 31.8924 33.0367 32.5705C32.6654 33.6036 32.6646 34.7342 33.0343 35.7679C33.2248 36.2811 33.5301 36.7445 33.9284 37.1211C34.2723 37.4542 34.6619 37.7368 35.0853 37.9618C35.6425 38.2618 36.2328 38.4947 36.8444 38.655C37.0466 38.7158 37.2473 38.7797 37.4472 38.8468L37.7502 38.9582L37.8368 38.9937C38.1359 39.1011 38.4082 39.27 38.638 39.4895C38.797 39.6395 38.9198 39.8234 38.9961 40.0287C39.0433 40.2158 39.0441 40.4116 38.9985 40.5995C38.9027 40.902 38.6925 41.1549 38.4129 41.3037C38.1084 41.4625 37.7783 41.566 37.4378 41.6092C36.9382 41.6888 36.4317 41.7145 35.9267 41.6858C35.2645 41.636 34.6057 41.5479 33.9536 41.4221C33.6128 41.3511 33.2736 41.2721 32.9375 41.1829L32.8116 41.1513ZM24.0408 44.6897H27.7635V29.8784H24.0408V44.6897ZM67.1382 34.2521C67.5361 33.927 67.9942 33.6843 68.4861 33.5379C68.9781 33.3915 69.4941 33.3443 70.0043 33.3991C70.5145 33.454 71.0088 33.6097 71.4587 33.8573C71.9086 34.1049 72.3051 34.4395 72.6252 34.8417C72.9454 35.244 73.183 35.7059 73.3241 36.2007C73.4653 36.6956 73.5072 37.2136 73.4476 37.7249C73.388 38.2361 73.2279 38.7304 72.9767 39.1792C72.7255 39.6281 72.3881 40.0225 71.984 40.3397C71.1776 40.9649 70.1584 41.247 69.1465 41.1251C68.1346 41.0032 67.211 40.4872 66.575 39.6883C65.939 38.8894 65.6416 37.8718 65.747 36.8549C65.8523 35.838 66.352 34.9027 67.1382 34.2521ZM61.7336 37.2908C61.7513 38.4469 62.0253 39.5845 62.5357 40.6211C63.046 41.6578 63.78 42.5676 64.6843 43.2845C65.5886 44.0014 66.6406 44.5074 67.7641 44.7659C68.8875 45.0244 70.0542 45.0288 71.1796 44.7789C72.6912 44.4935 74.0804 43.7535 75.1627 42.6571C76.2449 41.5608 76.969 40.16 77.2386 38.641C77.5083 37.122 77.3108 35.5567 76.6723 34.153C76.0339 32.7493 74.9848 31.5737 73.6643 30.7824C72.4916 30.0543 71.1477 29.6503 69.7691 29.6115C68.3905 29.5727 67.0261 29.9003 65.8145 30.5612C64.6029 31.2222 63.5871 32.1928 62.8703 33.3747C62.1534 34.5566 61.761 35.9076 61.7328 37.2908" fill="#02C8FF"/>
<path d="M0 17.9755C0.0265024 18.3229 0.150058 18.6558 0.356501 18.9359C0.562943 19.2161 0.843915 19.4322 1.1672 19.5595C1.49049 19.6869 1.843 19.7202 2.18432 19.6558C2.52564 19.5914 2.84195 19.4318 3.09699 19.1953C3.43856 18.8771 3.64792 18.4413 3.68255 17.9755V13.8703C3.67259 13.387 3.47422 12.927 3.13 12.5887C2.78578 12.2505 2.32312 12.0611 1.84127 12.0611C1.35943 12.0611 0.896769 12.2505 0.552548 12.5887C0.208327 12.927 0.00996043 13.387 0 13.8703L0 17.9755Z" fill="#02C8FF"/>
<path d="M10.1921 17.9755C10.2274 18.4414 10.4367 18.8767 10.7782 19.1945C11.1196 19.5123 11.568 19.689 12.0338 19.6895C12.4996 19.6894 12.9481 19.5127 13.2895 19.1949C13.6309 18.877 13.8399 18.4415 13.8747 17.9755V8.77264C13.8576 8.29424 13.6561 7.84115 13.3127 7.50876C12.9692 7.17638 12.5106 6.99063 12.0334 6.99063C11.5562 6.99063 11.0976 7.17638 10.7541 7.50876C10.4107 7.84115 10.2092 8.29424 10.1921 8.77264V17.9763" fill="#02C8FF"/>
<path d="M20.3307 21.6821C20.3641 22.149 20.5725 22.5859 20.9141 22.9048C21.2557 23.2238 21.705 23.4011 22.1716 23.4011C22.6383 23.4011 23.0876 23.2238 23.4291 22.9048C23.7707 22.5859 23.9791 22.149 24.0125 21.6821V1.77553C23.9886 1.30197 23.7842 0.855717 23.4416 0.529017C23.099 0.202318 22.6443 0.0201416 22.1716 0.0201416C21.6989 0.0201416 21.2443 0.202318 20.9017 0.529017C20.559 0.855717 20.3547 1.30197 20.3307 1.77553V21.6821Z" fill="#02C8FF"/>
<path d="M30.5567 17.9755C30.592 18.4414 30.8013 18.8767 31.1427 19.1945C31.4842 19.5123 31.9326 19.689 32.3984 19.6895C32.8642 19.6894 33.3127 19.5127 33.6541 19.1949C33.9955 18.877 34.2045 18.4415 34.2393 17.9755V8.77264C34.2222 8.29424 34.0207 7.84115 33.6773 7.50876C33.3338 7.17638 32.8752 6.99063 32.398 6.99063C31.9208 6.99063 31.4621 7.17638 31.1187 7.50876C30.7753 7.84115 30.5738 8.29424 30.5567 8.77264V17.9763" fill="#02C8FF"/>
<path d="M40.7292 17.9755C40.7557 18.3229 40.8792 18.6558 41.0857 18.9359C41.2921 19.2161 41.5731 19.4322 41.8964 19.5595C42.2197 19.6869 42.5722 19.7202 42.9135 19.6558C43.2548 19.5914 43.5711 19.4318 43.8262 19.1953C44.1677 18.8771 44.3771 18.4413 44.4117 17.9755V13.8703C44.4018 13.387 44.2034 12.927 43.8592 12.5887C43.5149 12.2505 43.0523 12.0611 42.5704 12.0611C42.0886 12.0611 41.6259 12.2505 41.2817 12.5887C40.9375 12.927 40.7391 13.387 40.7292 13.8703V17.9755Z" fill="#02C8FF"/>
<path d="M50.9213 17.9755C50.9566 18.4414 51.1659 18.8767 51.5073 19.1945C51.8488 19.5123 52.2972 19.689 52.763 19.6895C53.2287 19.6894 53.6773 19.5127 54.0187 19.1949C54.3601 18.877 54.5691 18.4415 54.6038 17.9755V8.77264C54.5868 8.29424 54.3853 7.84115 54.0419 7.50876C53.6984 7.17638 53.2398 6.99063 52.7626 6.99063C52.2853 6.99063 51.8267 7.17638 51.4833 7.50876C51.1398 7.84115 50.9384 8.29424 50.9213 8.77264V17.9763" fill="#02C8FF"/>
<path d="M61.0599 21.6821C61.0933 22.149 61.3017 22.5859 61.6433 22.9048C61.9848 23.2238 62.4341 23.4011 62.9008 23.4011C63.3674 23.4011 63.8168 23.2238 64.1583 22.9048C64.4999 22.5859 64.7083 22.149 64.7417 21.6821V1.77553C64.7177 1.30197 64.5134 0.855717 64.1708 0.529017C63.8281 0.202318 63.3735 0.0201416 62.9008 0.0201416C62.4281 0.0201416 61.9734 0.202318 61.6308 0.529017C61.2882 0.855717 61.0838 1.30197 61.0599 1.77553V21.6821Z" fill="#02C8FF"/>
<path d="M71.2859 17.9755C71.3212 18.4414 71.5305 18.8767 71.8719 19.1945C72.2133 19.5123 72.6618 19.689 73.1275 19.6895C73.5933 19.6894 74.0419 19.5127 74.3833 19.1949C74.7247 18.877 74.9337 18.4415 74.9684 17.9755V8.77264C74.9513 8.29424 74.7499 7.84115 74.4064 7.50876C74.063 7.17638 73.6044 6.99063 73.1271 6.99063C72.6499 6.99063 72.1913 7.17638 71.8479 7.50876C71.5044 7.84115 71.303 8.29424 71.2859 8.77264V17.9763" fill="#02C8FF"/>
<path d="M81.36 17.9755C81.3865 18.3229 81.51 18.6558 81.7165 18.9359C81.9229 19.2161 82.2039 19.4322 82.5272 19.5595C82.8504 19.6869 83.203 19.7202 83.5443 19.6558C83.8856 19.5914 84.2019 19.4318 84.4569 19.1953C84.7985 18.8771 85.0079 18.4413 85.0425 17.9755V13.8703C85.0325 13.387 84.8342 12.927 84.49 12.5887C84.1457 12.2505 83.6831 12.0611 83.2012 12.0611C82.7194 12.0611 82.2567 12.2505 81.9125 12.5887C81.5683 12.927 81.3699 13.387 81.36 13.8703V17.9755Z" fill="#02C8FF"/>
</g>
<defs>
<clipPath id="clip0_3737_17792">
<rect width="85" height="45" fill="#dddddda3"
/>
</clipPath>
</defs>
</svg>
