<svg width="39" height="45" viewBox="0 0 39 45" fill="none" xmlns="http://www.w3.org/2000/svg">
<g clip-path="url(#clip0_3737_17831)">
<mask id="mask0_3737_17831" style="mask-type:luminance" maskUnits="userSpaceOnUse" x="-17" y="-10" width="73" height="65">
<path d="M-16.7561 -9.10427H55.5591V54.0845H-16.7561V-9.10427Z" fill="white"/>
</mask>
<g mask="url(#mask0_3737_17831)">
<path fill-rule="evenodd" clip-rule="evenodd" d="M35.4583 -2.67528e-05H3.54168C0.954723 -2.67528e-05 1.90735e-06 0.949298 1.90735e-06 3.52283V34.5765C1.90735e-06 34.8677 0.0118129 35.1382 0.0376857 35.3888C0.0965824 35.9506 0.107671 36.4949 0.633081 37.1147C0.684425 37.1754 1.22084 37.5723 1.22084 37.5723C1.50938 37.713 1.7064 37.8166 2.03182 37.9469L17.748 44.4942C18.5639 44.8661 18.905 45.011 19.4976 44.9994V44.9994C19.4984 44.9994 19.4991 44.9994 19.5 44.9994C19.5008 44.9994 19.5015 44.9994 19.5023 44.9994V44.9994C20.0949 45.011 20.436 44.8661 21.252 44.4942L36.9681 37.9469C37.2936 37.8166 37.4905 37.713 37.7791 37.5723C37.7791 37.5723 38.3156 37.1754 38.3668 37.1147C38.8922 36.4949 38.9033 35.9506 38.9622 35.3888C38.9881 35.1382 39 34.8677 39 34.5765V3.52283C39 0.949298 38.0452 -2.67528e-05 35.4583 -2.67528e-05Z" fill="#2F2D2E"/>
<path d="M33.3205 31.2203L33.3133 31.292L33.3062 31.3707L33.2917 31.4424L33.2702 31.5139L33.2562 31.5784L33.2345 31.6501L33.2057 31.7146L33.1769 31.7719L33.1485 31.8363L33.1125 31.8936L33.0765 31.951L33.0337 32.0083L32.9976 32.0655L32.9549 32.1156L32.9044 32.1658L32.8616 32.2088L32.8041 32.259L32.754 32.302L32.6964 32.3449L32.6392 32.3803L32.582 32.4232L32.5171 32.459L32.4527 32.4877L32.3883 32.5235L32.3162 32.5522L32.2447 32.5809L32.1731 32.6023L32.1015 32.6239L32.0366 32.6453L31.965 32.6597L31.9006 32.674L31.8362 32.6883L31.7642 32.7026L31.6925 32.7097L31.6281 32.7169L31.5561 32.7241L31.4773 32.7313L31.4056 32.7384H31.334H31.2552H31.176H31.1044L31.0327 32.7313H30.954L30.8823 32.7241L30.8103 32.7169L30.7315 32.7097L30.6599 32.6954L30.5883 32.6883L30.5162 32.674L30.4446 32.6597L30.373 32.6453L30.3014 32.631L30.2294 32.6096L30.1649 32.5952L30.0934 32.5737L30.0217 32.5522L29.9569 32.5235L29.8853 32.502L29.8209 32.4806L29.7492 32.4519L29.6845 32.4232L29.62 32.3946L29.5556 32.3592L29.4908 32.3306L29.4264 32.2947L29.3692 32.259L29.3043 32.2231L29.2471 32.1873L29.1895 32.1515L29.1323 32.1085L29.0751 32.0655L29.0175 32.0226L28.9602 31.9796L28.9098 31.9366L28.8526 31.8865L28.8958 31.8292L28.9458 31.779L28.989 31.7217L29.0391 31.6644L29.0823 31.6143L29.1251 31.557L29.1755 31.4996L29.2183 31.4495L29.2687 31.3923L29.3115 31.3421L29.3619 31.2848L29.4048 31.2274L29.448 31.1773L29.498 31.1201L29.5412 31.0627L29.5912 31.0126L29.6344 30.9553L29.6916 30.9983L29.756 31.0413L29.8137 31.0843L29.8781 31.1272L29.9357 31.163L30.0002 31.2059L30.0573 31.2418L30.1222 31.2704L30.1793 31.3063L30.2438 31.335L30.3086 31.3636L30.373 31.3923L30.4375 31.4138L30.5023 31.4424L30.5739 31.4639L30.6455 31.4853L30.7099 31.5068L30.782 31.5212L30.8535 31.5355L30.9251 31.5498L31.004 31.557L31.076 31.5713H31.1476L31.2264 31.5784H31.298H31.384L31.4628 31.5713L31.5349 31.557L31.5993 31.5426L31.6637 31.5283L31.7213 31.5068L31.7714 31.4782L31.829 31.4352L31.8717 31.3851L31.9006 31.3277L31.9223 31.2633L31.9294 31.1916V31.1773L31.9223 31.0914L31.8934 31.0197L31.8574 30.9696L31.8074 30.9266L31.7497 30.8836L31.6925 30.855L31.6281 30.8264L31.5561 30.7977L31.4701 30.762L31.42 30.7476L31.3629 30.7333L31.298 30.7117L31.2336 30.6974L31.162 30.6759L31.0899 30.6616L31.0112 30.6401L30.9395 30.6258L30.8607 30.6043L30.7891 30.59L30.717 30.5685L30.6455 30.5542L30.5739 30.5327L30.509 30.5113L30.4375 30.4969L30.373 30.4754L30.3086 30.4539L30.2438 30.4324L30.1649 30.4037L30.0934 30.375L30.0217 30.3464L29.9497 30.3177L29.8853 30.282L29.8137 30.2462L29.756 30.2104L29.6916 30.1746L29.6344 30.1316L29.5768 30.0958L29.5268 30.0527L29.4764 30.0026L29.4264 29.9525L29.3831 29.9023L29.3404 29.8522L29.3043 29.8021L29.2687 29.7447L29.2327 29.6803L29.2039 29.6306L29.1823 29.5733L29.1611 29.5088L29.1395 29.4515L29.1251 29.3798L29.1107 29.3154L29.1034 29.2438L29.0963 29.1721L29.0891 29.0934V29.0146V29.0003V28.9286L29.0963 28.857L29.1034 28.7925L29.1107 28.7209L29.1251 28.6565L29.1395 28.592L29.1611 28.5274L29.1755 28.463L29.2039 28.3986L29.2327 28.3341L29.2615 28.2697L29.2972 28.2051L29.3331 28.1407L29.3759 28.0834L29.4192 28.0261L29.4692 27.9688L29.5196 27.9187L29.5696 27.8613L29.6272 27.8112L29.6772 27.7754L29.7348 27.7324L29.7921 27.6894L29.8493 27.6536L29.9141 27.6178L29.9785 27.5891L30.0429 27.5533L30.1077 27.5247L30.1793 27.5032L30.2509 27.4746L30.3158 27.4531L30.373 27.4387L30.4375 27.4244L30.5023 27.4101L30.5739 27.3958L30.6383 27.3814L30.7099 27.3743L30.782 27.3671L30.8535 27.3599L30.9251 27.3528H30.9967H31.076H31.1549H31.2336L31.3124 27.3599L31.3913 27.3671H31.4628L31.5421 27.3743L31.6137 27.3886L31.6925 27.3958L31.7642 27.4101L31.829 27.4244L31.9006 27.4387L31.9722 27.4531L32.0366 27.4674L32.1086 27.4889L32.1731 27.5104L32.2375 27.5247L32.3095 27.5533L32.3739 27.5748L32.4383 27.6034L32.5027 27.6321L32.5747 27.6608L32.6392 27.6966L32.6964 27.7253L32.7612 27.7611L32.8257 27.7969L32.8829 27.8327L32.9476 27.8757L33.0049 27.9114L33.0625 27.9545L33.1197 27.9975L33.1769 28.0404L33.1341 28.0978L33.0981 28.155L33.0553 28.2123L33.0121 28.2697L32.9693 28.3341L32.9333 28.3914L32.89 28.4487L32.8472 28.506L32.8113 28.5633L32.7684 28.6207L32.7252 28.678L32.6892 28.7352L32.6464 28.7997L32.6031 28.857L32.5603 28.9143L32.5244 28.9716L32.4815 29.0289L32.4239 28.986L32.3596 28.9501L32.3023 28.9143L32.2447 28.8713L32.1803 28.8427L32.1226 28.8068L32.0582 28.7781L32.001 28.7495L31.9362 28.7209L31.879 28.6923L31.8146 28.6708L31.757 28.6421L31.6781 28.6207L31.6065 28.5991L31.5349 28.5777L31.4628 28.5633L31.3913 28.549L31.3197 28.5346L31.2481 28.5274L31.176 28.5203L31.1116 28.5131H31.04H30.954L30.8752 28.5274L30.8031 28.5418L30.7387 28.5561L30.6815 28.5848L30.6311 28.6134L30.5666 28.6708L30.5234 28.7352L30.4951 28.7997L30.4878 28.8713V28.8857L30.4951 28.9788L30.5306 29.0575L30.5595 29.1005L30.6094 29.1507L30.6743 29.1865L30.7315 29.2223L30.8031 29.251L30.8823 29.2797L30.9684 29.3083L31.0256 29.3226L31.0828 29.3441L31.1476 29.3584L31.212 29.3798L31.2836 29.3942L31.3629 29.4157L31.4417 29.4371L31.5205 29.4587L31.5993 29.473L31.6709 29.4945L31.7497 29.516L31.8218 29.5303L31.8934 29.5518L31.965 29.5733L32.0294 29.5948L32.1015 29.6163L32.1659 29.6377L32.2303 29.6592L32.3095 29.6874L32.3811 29.7233L32.4527 29.7519L32.5244 29.7877L32.5892 29.8236L32.6536 29.8594L32.7108 29.8952L32.7684 29.9382L32.8257 29.974L32.8829 30.0241L32.9405 30.0742L32.9905 30.1316L33.0408 30.1817L33.0837 30.239L33.1269 30.3034L33.1625 30.3607L33.1986 30.4253L33.2273 30.4826L33.249 30.547L33.2702 30.6114L33.2845 30.6759L33.2989 30.7476L33.3133 30.8192L33.3205 30.8908L33.3278 30.9696V31.0484V31.0627V31.1416L33.3205 31.2203ZM28.2911 32.6525H28.2191H28.1475H28.0759H28.0043H27.9323H27.8606H27.7891H27.7174H27.6382H27.5666H27.495H27.4234H27.3512H27.2797H27.2081H27.1365H27.0644H26.9928H26.9212H26.8496H26.7779H26.706H26.6344H26.5628H26.4911H26.419H26.3474H26.2758H26.197H26.125H26.0533H25.9818H25.9102H25.8382H25.7665H25.6949H25.6232H25.5512H25.4796H25.4081H25.3364H25.2643H25.1928H25.1211H25.0495H24.9775H24.9059H24.827H24.7555H24.6839H24.6118H24.5402H24.4685H24.397H24.325H24.2533H24.1818V32.5809V32.5092V32.4376V32.3664V32.2947V32.2231V32.1515V32.0799V32.0083V31.9366V31.865V31.7933V31.7217V31.6501V31.5784V31.5068V31.4352V31.3636V31.2991V31.2274V31.1559V31.0843V31.0126V30.9409V30.8693V30.7977V30.726V30.6544V30.5828V30.5113V30.4396V30.3679V30.2963V30.2247V30.153V30.0814V30.0097V29.9382V29.8666V29.7949V29.7233V29.6521V29.5805V29.5088V29.4371V29.3655V29.294V29.2223V29.1507V29.079V29.0074V28.9358V28.8641V28.7925V28.7281V28.6565V28.5848V28.5131V28.4415V28.3699V28.2983V28.2266V28.155V28.0834V28.0118V27.9401V27.8685V27.7969V27.7253V27.6536V27.582V27.5104V27.4387H24.2533H24.325H24.397H24.4685H24.5402H24.6118H24.6839H24.7555H24.827H24.8987H24.9707H25.0424H25.1139H25.1856H25.2503H25.322H25.3936H25.4653H25.5373H25.6089H25.6804H25.7521H25.8241H25.8957H25.9673H26.039H26.111H26.1826H26.2542H26.3258H26.3979H26.4696H26.5411H26.6127H26.6843H26.7564H26.828H26.8996H26.9712H27.0433H27.1149H27.1864H27.258H27.323H27.3946H27.4661H27.5378H27.6098H27.6814H27.753H27.8246H27.8967H27.9683H28.0398H28.1115H28.1835H28.2552H28.3268V27.5104V27.5748V27.6464V27.7181V27.7897V27.8542V27.9258V27.9975V28.0619V28.1335V28.2051V28.2697V28.3413V28.4129V28.4845V28.549V28.6207H28.2552H28.1835H28.1115H28.0398H27.9683H27.8967H27.8318H27.7602H27.6886H27.617H27.545H27.4734H27.4017H27.3301H27.258H27.1864H27.1149H27.0433H26.9712H26.9068H26.8352H26.7636H26.6915H26.62H26.5483H26.4767H26.4046H26.333H26.2615H26.1899H26.1178H26.0461H25.9818H25.9102H25.8382H25.7665H25.6949H25.6232H25.5512V28.6923V28.7638V28.8354V28.9071V28.9788V29.0432V29.1148V29.1865V29.2581V29.3298V29.4013V29.473H25.6232H25.6949H25.7665H25.8382H25.9102H25.9818H26.0533H26.125H26.1899H26.2615H26.333H26.4046H26.4767H26.5483H26.62H26.6915H26.7636H26.8352H26.9068H26.9784H27.0504H27.122H27.1937H27.2654H27.3373H27.4089H27.4734H27.545H27.617H27.6886H27.7602H27.8318H27.9038H27.9755H28.0471V29.5446V29.6091V29.6803V29.7519V29.8164V29.888V29.9596V30.0241V30.0958V30.1674V30.239V30.3034V30.375V30.4467V30.5113V30.5828H27.9755H27.9038H27.8318H27.7602H27.6886H27.617H27.545H27.4734H27.4089H27.3373H27.2654H27.1937H27.122H27.0504H26.9784H26.9068H26.8352H26.7636H26.6915H26.62H26.5483H26.4767H26.4046H26.333H26.2615H26.1899H26.125H26.0533H25.9818H25.9102H25.8382H25.7665H25.6949H25.6232H25.5512V30.6544V30.7333V30.8049V30.8765V30.9553V31.027V31.0986V31.1773V31.2489V31.3206V31.3994V31.471H25.6232H25.6949H25.7665H25.8382H25.9102H25.9818H26.0533H26.125H26.197H26.2758H26.3474H26.419H26.4911H26.5628H26.6344H26.706H26.7779H26.8496H26.9212H26.9928H27.0644H27.1365H27.2081H27.2797H27.3512H27.4234H27.495H27.5666H27.6382H27.7174H27.7891H27.8606H27.9323H28.0043H28.0759H28.1475H28.2191H28.2911H28.3628V31.5426V31.6071V31.6788V31.7504V31.822V31.8865V31.9581V32.0297V32.0942V32.1658V32.2374V32.302V32.3731V32.4447V32.5163V32.5809V32.6525H28.2911ZM23.0511 32.6525H22.9796H22.9079H22.8287H22.7571H22.6855H22.6139H22.5418H22.4702H22.3914H22.3198H22.2481H22.1761H22.1045H22.0329H21.9541H21.882H21.8105H21.7388V32.5809V32.5092V32.4376V32.366V32.2939V32.2223V32.1506V32.079V32.0074V31.9358V31.8641V31.7921V31.7205V31.6488V31.5772V31.5056V31.4335V31.3618V31.2902V31.2186V31.147V31.0754V31.0033V30.9317V30.8601V30.7884V30.7168V30.6452V30.5731V30.5014V30.4298V30.3583V30.2867V30.215V30.1429V30.0713V29.9997V29.9281V29.8564V29.7844V29.7128V29.6411V29.5694L21.7029 29.6267L21.66 29.6917L21.624 29.749L21.5812 29.8063L21.5452 29.8707L21.5019 29.9281L21.4664 29.9854L21.4303 30.0503L21.3876 30.1075L21.3515 30.1648L21.3083 30.2222L21.2728 30.2871L21.2295 30.3443L21.1939 30.4016L21.1579 30.4661L21.1146 30.5238L21.079 30.5812L21.0358 30.6456L21.0003 30.7029L20.9571 30.7602L20.9215 30.8251L20.8854 30.8824L20.8422 30.9397L20.8066 31.0042L20.7634 31.0619L20.7278 31.1192L20.6846 31.1765L20.6485 31.2409L20.6129 31.2986L20.5698 31.356L20.5342 31.4205L20.4909 31.4778L20.4549 31.535L20.4121 31.6L20.3761 31.6573H20.3477L20.3045 31.5928L20.2685 31.535L20.2256 31.4706L20.1896 31.4133L20.1468 31.3489L20.1108 31.2911L20.0681 31.2266L20.032 31.1693L19.9888 31.1049L19.9532 31.0476L19.9099 30.9826L19.8744 30.9254L19.8312 30.8609L19.7951 30.8036L19.7524 30.7387L19.7163 30.6814L19.6735 30.617L19.6303 30.5597L19.5943 30.4948L19.5515 30.4375L19.5155 30.373L19.4727 30.3157L19.4367 30.2508L19.3938 30.1935L19.3578 30.129L19.3146 30.0717L19.279 30.0073L19.2358 29.9495L19.2002 29.8851L19.157 29.8277L19.121 29.7633L19.0782 29.7061L19.0421 29.6411L18.9993 29.5838V29.6554V29.7271V29.7987V29.8707V29.9424V30.014V30.0856V30.1573V30.2293V30.301V30.3654V30.437V30.5087V30.5803V30.6523V30.724V30.7956V30.8672V30.9389V31.0105V31.0825V31.1542V31.2258V31.2974V31.3691V31.4407V31.5127V31.5843V31.656V31.7276V31.7993V31.8712V31.9358V32.0074V32.079V32.1506V32.2223V32.2939V32.366V32.4376V32.5092V32.5809V32.6525H18.9277H18.8557H18.7841H18.7125H18.6409H18.5689H18.4972H18.4256H18.354H18.282H18.2104H18.1387H18.0671H17.9951H17.9235H17.8518H17.7802H17.7082H17.6366V32.5809V32.5092V32.4376V32.3664V32.2947V32.2231V32.1515V32.0799V32.0083V31.9366V31.865V31.7933V31.7217V31.6501V31.5784V31.5068V31.4352V31.3636V31.2991V31.2274V31.1559V31.0843V31.0126V30.9409V30.8693V30.7977V30.726V30.6544V30.5828V30.5113V30.4396V30.3679V30.2963V30.2247V30.153V30.0814V30.0097V29.9382V29.8666V29.7949V29.7233V29.6521V29.5805V29.5088V29.4371V29.3655V29.294V29.2223V29.1507V29.079V29.0074V28.9358V28.8641V28.7925V28.7281V28.6565V28.5848V28.5131V28.4415V28.3699V28.2983V28.2266V28.155V28.0834V28.0118V27.9401V27.8685V27.7969V27.7253V27.6536V27.582V27.5104V27.4387H17.7082H17.7802H17.8447H17.9162H17.9879H18.0599H18.1243H18.1959H18.268H18.3396H18.404H18.4756H18.5477H18.6193H18.6836H18.7552H18.8273H18.899H18.9633H19.0349H19.107L19.1426 27.4961L19.1786 27.5605L19.2213 27.6173L19.2574 27.6818L19.2934 27.7391L19.329 27.8037L19.365 27.8605L19.4079 27.925L19.4438 27.9823L19.4799 28.0396L19.5155 28.1036L19.5515 28.161L19.5943 28.2253L19.6303 28.2827L19.6663 28.3467L19.7019 28.404L19.7451 28.4613L19.7812 28.5254L19.8167 28.5826L19.8527 28.6471L19.8884 28.7045L19.9316 28.7685L19.9676 28.8258L20.0031 28.8902L20.0392 28.9471L20.0748 29.0044L20.118 29.0689L20.154 29.1263L20.1896 29.1907L20.2256 29.2476L20.2612 29.3121L20.3045 29.3694L20.3405 29.4334L20.3761 29.4907L20.4121 29.4334L20.4481 29.3694L20.4909 29.3121L20.5269 29.2476L20.5625 29.1907L20.5985 29.1263L20.6414 29.0689L20.6774 29.0044L20.7134 28.9471L20.7489 28.8902L20.7922 28.8258L20.8278 28.7685L20.8639 28.7045L20.8998 28.6471L20.9426 28.5826L20.9786 28.5254L21.0147 28.4613L21.0502 28.404L21.0863 28.3467L21.1291 28.2827L21.1651 28.2253L21.2011 28.161L21.2368 28.1036L21.2799 28.0396L21.3156 27.9823L21.3515 27.925L21.3876 27.8605L21.4303 27.8037L21.4664 27.7391L21.5019 27.6818L21.538 27.6173L21.5812 27.5605L21.6168 27.4961L21.6528 27.4387H21.7244H21.7961H21.8608H21.9325H22.0041H22.0757H22.1405H22.2122H22.2837H22.3554H22.4202H22.4918H22.5634H22.6351H22.6999H22.7715H22.8431H22.9147H22.9796H23.0511H23.1227V27.5104V27.582V27.6536V27.7253V27.7969V27.8685V27.9401V28.0118V28.0834V28.155V28.2266V28.2983V28.3699V28.4415V28.5131V28.5848V28.6565V28.7281V28.7925V28.8641V28.9358V29.0074V29.079V29.1507V29.2223V29.294V29.3655V29.4371V29.5088V29.5805V29.6521V29.7233V29.7949V29.8666V29.9382V30.0097V30.0814V30.153V30.2247V30.2963V30.3679V30.4396V30.5113V30.5828V30.6544V30.726V30.7977V30.8693V30.9409V31.0126V31.0843V31.1559V31.2274V31.2991V31.3636V31.4352V31.5068V31.5784V31.6501V31.7217V31.7933V31.865V31.9366V32.0083V32.0799V32.1515V32.2231V32.2947V32.3664V32.4376V32.5092V32.5809V32.6525H23.0511ZM14.7302 30.5041L14.7085 30.4392L14.6802 30.3675L14.6513 30.303L14.6297 30.2382L14.6014 30.1737L14.5726 30.102L14.5509 30.0371L14.5221 29.9727L14.4938 29.9083L14.4721 29.8434L14.4432 29.7717L14.4221 29.7073L14.3932 29.6424L14.3644 29.5779L14.3429 29.5134L14.3144 29.4414L14.2857 29.3769L14.264 29.3125L14.2352 29.2476L14.2068 29.176L14.1852 29.1111L14.1564 29.0466L14.128 29.1111L14.1065 29.176L14.0776 29.2476L14.0488 29.3125L14.0276 29.3769L13.9988 29.4414L13.97 29.5134L13.9416 29.5779L13.9199 29.6424L13.8911 29.7073L13.8623 29.7717L13.8411 29.8434L13.8123 29.9083L13.7835 29.9727L13.7619 30.0371L13.7335 30.102L13.7046 30.1737L13.6759 30.2382L13.6548 30.303L13.6259 30.3675L13.5971 30.4392L13.5754 30.5041L13.5471 30.5685H13.6187H13.6903H13.7619H13.8339H13.9055H13.9771H14.0488H14.1209H14.1852H14.2568H14.3289H14.4005H14.4721H14.5437H14.6153H14.6873H14.7589L14.7302 30.5041ZM16.9824 32.6525H16.9104H16.8459H16.7743H16.7023H16.6307H16.559H16.4946H16.4226H16.351H16.2794H16.2077H16.1357H16.0713H15.9997H15.928H15.856H15.7844H15.72H15.6484H15.5764L15.548 32.588L15.5263 32.5235L15.4976 32.459L15.4687 32.3874L15.4475 32.3234L15.4188 32.259L15.3899 32.1945L15.3687 32.13L15.3399 32.0655L15.3111 32.0011L15.2896 31.9366L15.2611 31.865L15.2323 31.8005L15.2107 31.7361L15.1818 31.6716H15.1102H15.0386H14.967H14.8954H14.8306H14.7589H14.6873H14.6153H14.5437H14.4721H14.4005H14.3289H14.2568H14.1852H14.1209H14.0488H13.9771H13.9055H13.8339H13.7619H13.6903H13.6187H13.5471H13.4755H13.4106H13.3391H13.2674H13.1953H13.1237L13.0954 31.7361L13.0737 31.8005L13.0449 31.865L13.0161 31.9366L12.9949 32.0011L12.9661 32.0655L12.9373 32.13L12.9157 32.1945L12.8873 32.259L12.8585 32.3234L12.8369 32.3874L12.8084 32.459L12.7797 32.5235L12.758 32.588L12.7292 32.6525H12.6576H12.586H12.5144H12.4423H12.3708H12.2919H12.2203H12.1487H12.0767H12.0051H11.9335H11.8618H11.7897H11.7182H11.6466H11.5678H11.4957H11.4241H11.3525H11.2809L11.3092 32.588L11.3381 32.5235L11.3669 32.459L11.3953 32.3874L11.4169 32.3234L11.4458 32.259L11.4745 32.1945L11.5029 32.13L11.5317 32.0655L11.5606 31.9939L11.5889 31.9294L11.6178 31.865L11.6393 31.8005L11.6682 31.7361L11.6965 31.6716L11.7254 31.6L11.7541 31.5355L11.7826 31.471L11.8114 31.4066L11.8402 31.3421L11.8618 31.2776L11.8902 31.2059L11.919 31.1416L11.9479 31.0771L11.9762 31.0126L12.0051 30.9481L12.0339 30.8836L12.0623 30.812L12.0839 30.7476L12.1128 30.6831L12.1415 30.6186L12.17 30.5542L12.1987 30.4897L12.2275 30.4181L12.2559 30.3536L12.2847 30.2891L12.3063 30.2247L12.3352 30.1603L12.3635 30.0958L12.3924 30.0241L12.4212 29.9596L12.4496 29.8952L12.4783 29.8307L12.5072 29.7663L12.5288 29.7017L12.5572 29.6377L12.586 29.5661L12.6148 29.5017L12.6432 29.4371L12.672 29.3727L12.7008 29.3083L12.7292 29.2438L12.7508 29.1721L12.7797 29.1077L12.8084 29.0432L12.8369 28.9788L12.8657 28.9143L12.8945 28.8498L12.9229 28.7781L12.9517 28.7138L12.9733 28.6493L13.0021 28.5848L13.0305 28.5203L13.0593 28.4558L13.0881 28.3843L13.1165 28.3198L13.1453 28.2553L13.1742 28.1908L13.1953 28.1264L13.2242 28.0619L13.253 27.9903L13.2818 27.9258L13.3102 27.8613L13.3391 27.7969L13.3678 27.7324L13.3962 27.668L13.4179 27.5963L13.4466 27.5319L13.4755 27.4674L13.5039 27.4029H13.5754H13.6403H13.7119H13.7835H13.8555H13.9199H13.9915H14.0632H14.1352H14.1997H14.2712H14.3429H14.4149H14.4793H14.5509H14.6225H14.6946H14.7589H14.8306L14.8594 27.4674L14.8882 27.5319L14.9167 27.5963L14.9454 27.668L14.967 27.7324L14.9954 27.7969L15.0242 27.8613L15.053 27.9258L15.0819 27.9903L15.1102 28.0619L15.1391 28.1264L15.1679 28.1908L15.189 28.2553L15.2179 28.3198L15.2467 28.3843L15.2756 28.4558L15.3039 28.5203L15.3327 28.5848L15.3615 28.6493L15.3899 28.7138L15.4115 28.7781L15.4403 28.8498L15.4687 28.9143L15.4976 28.9788L15.5263 29.0432L15.5552 29.1077L15.5836 29.1721L15.6123 29.2438L15.634 29.3083L15.6624 29.3727L15.6911 29.4371L15.72 29.5017L15.7488 29.5661L15.7772 29.6377L15.806 29.7017L15.8348 29.7663L15.856 29.8307L15.8848 29.8952L15.9136 29.9596L15.9421 30.0241L15.9708 30.0958L15.9997 30.1603L16.0285 30.2247L16.0569 30.2891L16.0785 30.3536L16.1073 30.4181L16.1357 30.4897L16.1645 30.5542L16.1933 30.6186L16.2221 30.6831L16.2505 30.7476L16.2794 30.812L16.3009 30.8836L16.3294 30.9481L16.3581 31.0126L16.387 31.0771L16.4153 31.1416L16.4442 31.2059L16.473 31.2776L16.5019 31.3421L16.523 31.4066L16.5519 31.471L16.5807 31.5355L16.6091 31.6L16.6378 31.6716L16.6667 31.7361L16.6954 31.8005L16.7238 31.865L16.7455 31.9294L16.7743 31.9939L16.8027 32.0655L16.8315 32.13L16.8602 32.1945L16.8887 32.259L16.9175 32.3234L16.9463 32.3874L16.968 32.459L16.9963 32.5235L17.0251 32.588L17.0539 32.6525H16.9824ZM10.6996 31.9867L10.6419 32.0297L10.5919 32.0655L10.5343 32.1085L10.4771 32.1443L10.4199 32.1873L10.3622 32.2231L10.305 32.259L10.2402 32.2947L10.1757 32.3306L10.1113 32.3664L10.0465 32.3946L9.9821 32.4304L9.91051 32.459L9.84615 32.4877L9.77408 32.5163L9.70972 32.545L9.64519 32.5665L9.58043 32.588L9.51599 32.6096L9.4444 32.631L9.38004 32.6525L9.30797 32.6668L9.24352 32.6811L9.17193 32.6954L9.09994 32.7097L9.02827 32.7169L8.94944 32.7241L8.87785 32.7313L8.79903 32.7384L8.72695 32.7456L8.64821 32.7527H8.56939H8.49048H8.41174H8.33967L8.26807 32.7456L8.18925 32.7384L8.11766 32.7313L8.04607 32.7241L7.97399 32.7169L7.9024 32.7026L7.83073 32.6883L7.76637 32.674L7.69437 32.6597L7.62993 32.6382L7.55834 32.6239L7.4935 32.6023L7.42906 32.5737L7.36462 32.5522L7.29311 32.5235L7.22826 32.4949L7.16382 32.4663L7.09946 32.4376L7.03454 32.4018L6.97741 32.3664L6.91297 32.3306L6.85536 32.2947L6.79815 32.259L6.74054 32.2159L6.68333 32.173L6.62604 32.13L6.57566 32.087L6.52568 32.0441L6.47522 31.9939L6.42524 31.951L6.37478 31.9008L6.3248 31.8506L6.28157 31.8005L6.23875 31.7432L6.19552 31.6931L6.15952 31.6358L6.1167 31.5784L6.08078 31.5212L6.0451 31.4639L6.00911 31.3994L5.97311 31.3421L5.94475 31.2776L5.9159 31.2131L5.88714 31.1487L5.85869 31.0843L5.83708 31.027L5.80823 30.9624L5.79385 30.8979L5.77264 30.8336L5.75825 30.762L5.73664 30.6974L5.72226 30.6258L5.71503 30.5613L5.70056 30.4897L5.69349 30.4253L5.68618 30.3536L5.67943 30.282L5.67228 30.2104V30.1316V30.0599V30.0456V29.974L5.67943 29.8952V29.8236L5.68618 29.7519L5.69349 29.6731L5.70788 29.602L5.71503 29.5303L5.72941 29.4658L5.75102 29.3942L5.76549 29.3226L5.78662 29.2581L5.80823 29.1865L5.82985 29.122L5.85869 29.0504L5.88714 28.986L5.9159 28.9215L5.94475 28.857L5.97311 28.7925L6.00911 28.7281L6.0451 28.6708L6.08078 28.6134L6.1167 28.5561L6.15277 28.4988L6.19552 28.4415L6.23875 28.3843L6.28157 28.327L6.3248 28.2767L6.37478 28.2266L6.41801 28.1765L6.46807 28.1264L6.51845 28.0762L6.56843 28.0333L6.62604 27.9831L6.67609 27.9401L6.7333 27.8971L6.79092 27.8613L6.84812 27.8184L6.90582 27.7826L6.96295 27.7468L7.02739 27.7109L7.09223 27.6751L7.15659 27.6393L7.22103 27.6106L7.28579 27.582L7.35747 27.5462L7.41468 27.5247L7.48627 27.5032L7.55119 27.4746L7.61555 27.4602L7.67991 27.4387L7.7519 27.4244L7.81635 27.4029L7.88794 27.3886L7.95961 27.3814L8.0316 27.3671L8.10327 27.3599L8.17479 27.3528L8.24646 27.3456L8.31853 27.3384H8.39736H8.46895H8.54769H8.62652L8.70582 27.3456L8.78465 27.3528H8.85624L8.92783 27.3599L9.00665 27.3743L9.0715 27.3814L9.14309 27.3958L9.21476 27.4101L9.27952 27.4244L9.34388 27.4387L9.4084 27.4531L9.47325 27.4746L9.53761 27.4889L9.59482 27.5104L9.65966 27.5319L9.7241 27.5605L9.78846 27.5891L9.8533 27.6178L9.91774 27.6536L9.9821 27.6823L10.0398 27.7181L10.1042 27.7539L10.1614 27.7897L10.2262 27.8255L10.2834 27.8685L10.3406 27.9043L10.3982 27.9473L10.4554 27.9903L10.5131 28.0404L10.5703 28.0834L10.527 28.1407L10.4771 28.1908L10.4338 28.2481L10.3839 28.3054L10.3406 28.3628L10.2978 28.4129L10.2473 28.4702L10.2046 28.5274L10.1614 28.5777L10.1113 28.635L10.0682 28.6923L10.0181 28.7495L9.97487 28.7997L9.93213 28.857L9.88175 28.9143L9.83884 28.9716L9.78846 29.0218L9.74563 29.079L9.68802 29.0361L9.63081 28.986L9.5732 28.9501L9.51599 28.9071L9.45878 28.8713L9.40117 28.8354L9.34388 28.7997L9.27952 28.7638L9.22191 28.7352L9.1647 28.7066L9.10709 28.6851L9.04265 28.6636L8.97829 28.6421L8.91345 28.6278L8.84185 28.6134L8.77026 28.5991L8.69859 28.592L8.61977 28.5848L8.54054 28.5777H8.46172H8.39013L8.31853 28.5848L8.25369 28.592L8.1821 28.6063L8.11766 28.6207L8.05282 28.6421L7.98846 28.6636L7.92401 28.6923L7.85957 28.7209L7.80196 28.7567L7.74483 28.7925L7.68714 28.8284L7.63716 28.8713L7.5867 28.9143L7.53673 28.9573L7.4935 29.0074L7.44352 29.0575L7.40029 29.1148L7.36462 29.165L7.32862 29.2223L7.29311 29.2868L7.25703 29.3441L7.22826 29.4085L7.20665 29.473L7.1782 29.5375L7.15659 29.6091L7.14221 29.6803L7.12782 29.7447L7.11336 29.8236L7.10621 29.8952L7.09946 29.9668V30.0456V30.0599V30.1316L7.10621 30.2032L7.11336 30.2676L7.12059 30.3393L7.13497 30.4037L7.14944 30.4683L7.16382 30.5327L7.18543 30.5971L7.20665 30.6544L7.23549 30.726L7.26426 30.7906L7.29985 30.855L7.33585 30.9123L7.37185 30.9696L7.41468 31.027L7.4579 31.0771L7.50788 31.1272L7.55119 31.1773L7.60109 31.2203L7.65878 31.2633L7.71599 31.3063L7.77312 31.3421L7.83073 31.3779L7.89525 31.4066L7.95961 31.4352L8.02437 31.4639L8.09604 31.4853L8.16764 31.5068L8.23971 31.5212L8.3113 31.5355L8.38289 31.5426L8.46172 31.5498H8.54054H8.62652L8.70582 31.5426L8.78465 31.5355L8.85624 31.5283L8.92783 31.5139L8.9999 31.4996L9.0715 31.4782L9.13586 31.4639L9.20038 31.4352L9.25799 31.4066L9.32235 31.3779L9.37273 31.3493L9.43002 31.3134V31.2418V31.1702V31.0986V31.027V30.9481V30.8765V30.8049V30.7333V30.6616H9.35835H9.29358H9.22191H9.15032H9.07873H9.01388H8.94221H8.87062H8.79903H8.73426H8.66259H8.591H8.51933H8.45457H8.38289V30.59V30.5256V30.4539V30.3823V30.3106V30.2462V30.1746V30.1029V30.0313V29.9668V29.8952V29.8236V29.7519V29.6874V29.6163H8.45457H8.52656H8.59823H8.66974H8.74142H8.81301H8.88508H8.95667H9.02827H9.09994H9.17193H9.24352H9.31512H9.38671H9.45878H9.53046H9.60205H9.67364H9.74563H9.8173H9.8889H9.96049H10.0325H10.1042H10.1757H10.2473H10.3194H10.391H10.4627H10.5343H10.6063H10.6779H10.7495V29.6874V29.759V29.8307V29.8952V29.9668V30.0384V30.11V30.1817V30.2533V30.3177V30.3894V30.4611V30.5327V30.6043V30.6759V30.7476V30.812V30.8836V30.9553V31.027V31.0986V31.1702V31.2418V31.3063V31.3779V31.4495V31.5212V31.5928V31.6644V31.7289V31.8005V31.8721V31.9438L10.6996 31.9867Z" fill="white"/>
<path d="M8.39305 15.6419H11.5012V13.2512H8.39305V8.37068H11.625V5.98004H5.75362V23.2336H11.6741V20.8429H8.39305V15.6419Z" fill="white"/>
<path d="M30.6561 16.1598V20.0542C30.6561 20.7444 30.3353 21.0646 29.6696 21.0646H29.1759C28.4853 21.0646 28.1644 20.7444 28.1644 20.0542V9.15943C28.1644 8.46929 28.4853 8.14907 29.1759 8.14907H29.62C30.2861 8.14907 30.6069 8.46929 30.6069 9.15943V12.5366H33.1968V9.01154C33.1968 6.86738 32.1607 5.83209 30.015 5.83209H28.7319C26.586 5.83209 25.5249 6.89183 25.5249 9.03639V20.1772C25.5249 22.3219 26.586 23.3815 28.7319 23.3815H30.0395C32.1858 23.3815 33.2463 22.3219 33.2463 20.1772V16.1598H30.6561Z" fill="white"/>
<path d="M21.4902 23.2337H24.13V5.98H21.4902V23.2337Z" fill="white"/>
<path d="M17.6599 13.6455C17.6599 14.3357 17.3396 14.6564 16.6735 14.6564H15.5879V8.29696H16.6735C17.3396 8.29696 17.6599 8.61726 17.6599 9.30732V13.6455ZM17.0926 5.97997H12.9484V23.2337H15.5879V16.9729H17.0926C19.2388 16.9729 20.2994 15.9132 20.2994 13.769V9.18428C20.2994 7.03971 19.2388 5.97997 17.0926 5.97997Z" fill="white"/>
<path fill-rule="evenodd" clip-rule="evenodd" d="M11.9805 38.8344H27.0907L19.3782 41.3634L11.9805 38.8344Z" fill="white"/>
</g>
</g>
<defs>
<clipPath id="clip0_3737_17831">
<rect width="39" height="45" fill="white"/>
</clipPath>
</defs>
</svg>
