<svg width="471" height="109" viewBox="0 0 471 109" fill="none" xmlns="http://www.w3.org/2000/svg">
<mask id="mask0_2_31" style="mask-type:luminance" maskUnits="userSpaceOnUse" x="0" y="0" width="471" height="109">
<path d="M471 0H0V108.7H471V0Z" fill="white"/>
</mask>
<g mask="url(#mask0_2_31)">
<path d="M69.5 36.8C77.4 36.9 84 39.6 89.5 45C95 50.4 97.7 56.8 97.7 64.5L97.5 100.3C97.5 104.6 93.9 108 89.4 108C85 108 81.4 104.5 81.5 100.2L81.7 64.4C81.8 61.2 80.5001 58.1 78.1001 55.9C75.8001 53.6 72.9 52.4 69.4 52.4C66 52.3 62.7001 53.7 60.4001 56.1C58.1001 58.4 57 61.5 57 64.7L56.8001 100C56.8001 104.3 53.1 107.8 48.6 107.8C44.1 107.8 40.5 104.2 40.5 99.9L40.7 64.4C40.8 61.3 39.6001 58.2 37.4001 56C35.0001 53.5 32.0001 52.3 28.4001 52.2C25.1001 52.1 22 53.3 19.7 55.6C17.3 57.9 16.1 60.7 16.1 64L15.9001 99.7C15.9001 104 12.3001 107.5 7.80005 107.4C3.40005 107.4 -0.199951 103.9 -0.199951 99.6L4.95911e-05 64C4.95911e-05 57.3 2.50005 50.9 7.00005 46C12.9 39.7 20.1 36.5 28.5 36.6C36.5 36.7 43.4001 39.5 48.9001 45.1C54.7001 39.5 61.5 36.8 69.5 36.8ZM170.7 76.5L124.8 76.2C125.2 81.7 127 86.1 130.3 89.4C133.6 92.6 137.8 94.3 142.8 94.3C146.8 94.3 150.1 93.4 152.7 91.6C154.2 90.5 155.9 88.9 157.7 86.6C160 83.7 164.1 82.9 167.4 84.6L167.9 84.9C172 87.1 172.9 92.4 169.9 95.9C169.4 96.5 168.9 97.1 168.3 97.6C166.1 99.9 163.6 102 160.8 103.6C158.1 105.2 155.2 106.3 152.2 107C149.1 107.7 145.8 108.1 142.1 108.1C131.8 108 123.5 104.8 117.2 98.3C111 91.8 107.9 83.2 108 72.5C108.1 61.9 111.2 53.3 117.3 46.8C123.5 40.4 131.6 37.2 141.7 37.3C151.9 37.4 160 40.6 165.8 46.9C171.6 53.2 174.5 61.9 174.5 72.9C174.5 74.9 172.7 76.5 170.7 76.5ZM158.1 63.7C155.9 55.4 150.6 51.3 142 51.2C140.1 51.2 138.3 51.4 136.5 52C134.8 52.5 133.2 53.4 131.8 54.5C130.4 55.6 129.2 56.9 128.2 58.4C127.1 60 126.4 61.7 125.9 63.6L158.1 63.7ZM247.1 76.5L201.2 76.2C201.6 81.7 203.4 86.1 206.7 89.4C210 92.6 214.2 94.3 219.2 94.3C223.2 94.3 226.5 93.4 229.1 91.6C230.7 90.5 232.3 88.9 234.1 86.6C236.4 83.7 240.5 82.9 243.8 84.6L244.3 84.9C248.4 87.1 249.3 92.4 246.3 95.9C245.8 96.5 245.3 97.1 244.7 97.6C242.5 99.9 240 102 237.2 103.6C234.5 105.2 231.6 106.3 228.6 107C225.5 107.7 222.2 108.1 218.5 108.1C208.2 108 199.8 104.8 193.6 98.3C187.4 91.8 184.3 83.2 184.4 72.5C184.5 61.9 187.6 53.3 193.7 46.8C199.9 40.4 208 37.2 218.1 37.3C228.3 37.4 236.4 40.6 242.2 46.9C248 53.2 250.9 61.9 250.9 72.9C250.9 74.9 249.2 76.5 247.1 76.5ZM234.5 63.7C232.3 55.4 227 51.3 218.4 51.2C216.5 51.2 214.7 51.4 212.9 52C209.5 53.1 206.6 55.3 204.6 58.3C203.5 59.9 202.8 61.6 202.3 63.5L234.5 63.7ZM335.5 1.46097e-05C340 1.46097e-05 343.6 3.60001 343.6 8.00001L343.3 43.1C349.2 38.1 355.6 36.9 362.7 37C369.7 37 377.1 40.1 381.9 45.1C386 49.5 387.9 56.5 387.9 66.1L387.7 100.2C387.7 104.6 384 108.1 379.5 108.1C375 108.1 371.3 104.5 371.4 100.1L371.6 67.5C371.6 62 370.7 58 368.7 55.6C366.7 53.1 363.5 51.9 359 51.9C353.3 51.9 349.2 53.6 346.9 56.9C344.6 60.4 343.4 66.3 343.3 74.8L343.1 100.1C343.1 104.5 339.4 108 334.8 107.9C330.3 107.9 326.7 104.3 326.7 99.9L327.4 8.10002C327.3 3.40002 331 -0.0999854 335.5 1.46097e-05ZM397.6 72.8C397.7 63.3 401.2 55.3 408.3 48.7C415.3 42.1 423.9 38.8 434 38.9C444.1 39 452.7 42.4 459.7 49.1C466.6 55.8 470 64.1 470 73.8C469.9 83.7 466.4 91.8 459.3 98.5C452.2 105.1 443.5 108.3 433.3 108.2C423.1 108.1 414.6 104.7 407.8 97.9C400.9 91.3 397.5 82.9 397.6 72.8ZM413.6 73.2C413.6 79.8 415.3 84.9 418.9 88.8C422.6 92.7 427.5 94.7 433.6 94.7C439.7 94.7 444.6 92.9 448.3 89.1C452 85.3 453.9 80.2 453.9 73.9C453.9 67.5 452.2 62.4 448.5 58.6C444.8 54.7 439.9 52.7 433.8 52.7C427.8 52.7 423 54.6 419.2 58.4C415.6 62.1 413.7 67.1 413.6 73.2ZM308.6 71.8C313.5 75.4 316 80.1 316.1 85.8V86C316.1 93 313.4 98.7 308.2 102.6C303.5 106.2 297 108.1 289.4 108.1C281.3 108.1 272.8 105.8 265.4 101.7C261.5 99.6 260.3 94.7 262.8 91C264.3 88.9 266.7 87.6 269.3 87.6C270.7 87.6 272 87.9 273.1 88.6C278.7 91.7 284.5 93.4 289.8 93.4C298.1 93.4 299 89.4 299 87.6V87.4C299 83.9 294.2 82.2 286.4 79.9C285.9 79.7 285.3 79.6 284.8 79.4C279.6 78 274.2 76.2 270 73.2C265 69.6 262.6 64.9 262.6 58.7V58.5C262.6 45.9 273.2 37.1 288.2 37.1C294.5 37.1 301.5 38.6 307.8 41.5C309.7 42.4 311.3 44 312 46C312.7 48 312.4 50.2 311.4 52C310 54.4 307.4 55.9 304.6 55.9C303.5 55.9 302.3 55.7 301.3 55.2C296.4 53 291.8 51.8 287.9 51.8C283 51.8 279.8 53.8 279.8 56.9V57.1C279.8 60.7 286.1 62.7 292.9 64.8L294.2 65.2C299 66.8 304.3 68.7 308.6 71.8Z" fill="#F43397"/>
</g>
</svg>
