<svg width="169" height="45" viewBox="0 0 169 45" fill="none" xmlns="http://www.w3.org/2000/svg">
<path d="M148.65 22.284C148.65 19.7249 150.014 17.9902 151.977 17.9902C154.195 17.9902 155.503 19.611 155.503 22.284C155.503 24.957 154.195 26.6061 151.977 26.6061C150.015 26.6063 148.65 24.8433 148.65 22.284ZM151.238 29.6773C153.086 29.6773 154.508 28.9094 155.503 27.63L155.787 29.393H159.001V15.1752H155.787L155.503 16.9381C154.508 15.6585 153.086 14.8909 151.238 14.8909C147.427 14.8909 144.954 18.1041 144.954 22.2842C144.954 26.4643 147.427 29.6773 151.238 29.6773ZM139.21 13.6388H142.793V10.1414H139.21V13.6388ZM139.21 29.3928H142.793V15.1752H139.21V29.3928ZM131.361 29.6773C135.001 29.6773 137.276 27.8574 137.276 24.9855C137.276 22.8529 136.167 21.4881 133.977 21.0614L130.708 20.4641C129.598 20.2651 129.086 19.8386 129.086 19.0993C129.086 18.2747 129.968 17.7345 131.248 17.7345C132.527 17.7345 133.437 18.3317 133.665 19.1847H137.049C136.792 16.5687 134.574 14.8909 131.304 14.8909C127.779 14.8909 125.589 16.6254 125.589 19.3552C125.589 21.4879 126.925 22.9949 129.371 23.4783L132.641 24.0755C133.38 24.2178 133.779 24.6728 133.779 25.2983C133.779 26.2652 132.897 26.8339 131.39 26.8339C129.854 26.8339 128.888 26.1515 128.689 24.9855H125.134C125.304 27.8857 127.693 29.6773 131.361 29.6773ZM113.874 20.6632C114.187 18.9571 115.609 17.7345 117.286 17.7345C119.107 17.7345 120.244 18.7582 120.557 20.6632H113.874ZM117.286 29.6773C120.869 29.6773 123.486 27.8006 123.713 24.9855H120.414C120.13 26.0945 119.05 26.8339 117.286 26.8339C115.438 26.8339 113.817 25.2983 113.789 23.1943H123.912C123.912 22.9383 123.94 22.6824 123.94 22.199C123.94 17.7062 121.382 14.8911 117.287 14.8911C113.22 14.8911 110.377 17.8769 110.377 22.2844C110.377 26.6919 113.22 29.6773 117.286 29.6773ZM95.7322 29.3928H99.3151V21.1751C99.3151 19.2415 100.538 17.9904 102.187 17.9904C103.751 17.9904 104.803 19.071 104.803 20.9477V29.393H108.386V20.521C108.386 17.0804 106.481 14.8907 103.495 14.8907C101.675 14.8907 100.196 15.63 99.3148 16.8811V10.1401H95.7322V29.3928ZM90.2729 29.3928H93.6852V26.4356H91.5525C90.8133 26.4356 90.2729 25.8953 90.2729 25.1559V18.1324H93.6852V15.1752H90.2729V10.9972H86.6901V15.1752H84.273V18.1324H86.6901V25.81C86.6901 27.8857 88.1971 29.3928 90.2729 29.3928ZM70.2544 29.3928H73.8372V21.1751C73.8372 19.2415 75.06 17.9904 76.7091 17.9904C78.273 17.9904 79.3251 19.071 79.3251 20.9477V29.393H82.9079V20.521C82.9079 17.0804 81.0027 14.8907 78.0171 14.8907C76.1405 14.8907 74.6333 15.6868 73.7518 17.0233L73.4675 15.1749H70.2544V29.3928ZM56.3212 34.3407H59.9326C61.4113 34.3407 62.6624 33.4307 63.1172 32.0376L68.6904 15.1754H64.9085L61.9512 24.9855L58.994 15.1754H55.2691L60.0747 29.7058C60.359 30.5305 59.9042 31.412 58.9373 31.412H56.3214L56.3212 34.3407ZM49.0418 29.6773C52.6815 29.6773 54.9563 27.8574 54.9563 24.9855C54.9563 22.8529 53.8474 21.4881 51.6578 21.0614L48.3877 20.4641C47.2788 20.2651 46.767 19.8386 46.767 19.0993C46.767 18.2747 47.6484 17.7345 48.9281 17.7345C50.2077 17.7345 51.1175 18.3317 51.3451 19.1847H54.7289C54.473 16.5687 52.255 14.8909 48.985 14.8909C45.4589 14.8909 43.2695 16.6254 43.2695 19.3552C43.2695 21.4879 44.6059 22.9949 47.0514 23.4783L50.3214 24.0755C51.0607 24.2178 51.4588 24.6728 51.4588 25.2983C51.4588 26.2652 50.5774 26.8339 49.0703 26.8339C47.5347 26.8339 46.568 26.1515 46.3689 24.9855H42.8145C42.985 27.8857 45.3736 29.6773 49.0418 29.6773Z" fill="#0D0F2C"/>
<path d="M13.8587 31.3389H29.4291C33.2649 31.3389 35.7084 28.9808 36.1062 25.3722L36.9018 17.8995H31.5315L30.7929 24.7188C30.7076 25.6281 30.1393 26.1393 29.2016 26.1393H14.3702L13.8587 31.3389ZM14.3702 26.1393L15.1089 19.3201C15.1942 18.4108 15.7625 17.8995 16.7001 17.8995H31.5315L32.0433 12.7H16.4727C12.6369 12.7 10.1934 15.0584 9.7955 18.6667L9 26.1393H14.3702Z" fill="#3E57DA"/>
</svg>
