<svg width="3354" height="686" viewBox="0 0 3354 686" fill="none" xmlns="http://www.w3.org/2000/svg">
<path d="M1984.59 207.982V140.688H1744.52V486.918H1984.59V416.695H1841.72V339.944H1960.55V272.734H1841.72V207.982H1984.59Z" fill="#49266C"/>
<path d="M2407.93 418.597H2257.95V140.688H2159.55V486.918H2407.93V418.597Z" fill="#49266C"/>
<path d="M3200.4 272.637C3134 257.681 3110.75 255.945 3110.75 229.534C3110.75 205.024 3143.65 197.4 3162.58 197.4C3193.19 197.4 3229.34 204.538 3266.18 223.424L3292.97 159.713C3255.21 139.133 3206.77 130.565 3160.18 130.565C3068.62 130.565 3007.18 167.711 3004.6 240.129C3001.99 306.173 3055.69 330.877 3105.05 341.069C3152.62 350.901 3200.9 359.316 3201.87 387.575C3202.74 413.64 3179.3 424.804 3135.07 424.804C3094.1 424.804 3056.01 411.64 3017.1 395.337L2994.35 464.589C3039.09 483.613 3084.51 494.097 3131.32 494.097C3196.37 494.097 3243.84 483.946 3278.78 451.147C3303 428.623 3310.93 401.433 3310.93 375.48C3310.98 320.753 3276.86 289.926 3200.4 272.637Z" fill="#49266C"/>
<path d="M1604.94 209.037V140.688H1302.97V209.037H1404.99V486.918H1502.8V209.037H1604.94Z" fill="#49266C"/>
<path d="M2743.61 140.688V360.663C2743.61 377.896 2743.61 382.659 2742.59 389.366C2739.42 410.335 2719.12 422.499 2686.7 422.93C2662.71 422.541 2645.12 415.445 2636.95 402.905C2632.82 396.462 2630.82 384.881 2630.82 366.384V140.688H2528.78V379.298C2528.78 412.362 2533.19 427.29 2548.12 446.162C2572.76 476.948 2620.78 493.139 2686.9 493.139C2687.65 493.139 2688.3 493.139 2689.08 493.139C2689.43 493.139 2690.02 493.139 2690.52 493.139C2779.05 493.139 2824.79 458.618 2837.99 426.318C2844.59 410.654 2845.07 403.239 2845.07 371.633V140.688H2743.61Z" fill="#49266C"/>
<path d="M1349.06 45.8858L776.807 159.81V199.719L778.626 199.247C1156.67 107.361 1349.05 52.093 1350.6 51.7042C1352.74 51.1488 1353.49 49.4824 1353.2 48.0799C1352.88 46.6079 1351.34 45.3859 1349.06 45.8858Z" fill="#49266C"/>
<path d="M883.795 34.9989C855.979 36.5819 804.471 77.7829 776.196 102.251C663.611 199.65 579.899 289.176 519.03 382.937C392.142 450.897 230.341 520.787 69.7199 575.333L65.8453 576.638L34.9321 659.873L52.5829 653.055C154.766 614.118 325.316 540.992 479.924 459.701C471.216 482.919 466.828 504.262 466.828 523.717C466.828 538.228 469.258 551.726 474.105 563.988C483.826 588.483 502.991 607.036 529.557 617.575C569.122 633.364 623.102 633.656 684.692 615.006C842.036 567.32 1028.67 420.902 1069.3 391.782L1070.86 390.685C1072.45 389.533 1072.57 387.797 1071.9 386.617C1071.01 385.27 1069.14 384.909 1067.59 385.853L1065.59 387.061C1021.99 413.237 810.095 539.034 672.36 575.972C602.202 594.788 548.735 584.512 528.571 556.308C521.572 546.671 518.197 534.479 518.197 520.259C518.197 492.5 531.265 457.16 556.429 417.875C579.593 404.697 601.23 391.81 620.727 379.562C755.101 304.048 909.917 157.227 916.527 67.6041C916.555 66.9931 916.555 66.2849 916.555 65.6184C916.555 57.8837 913.208 49.9268 907.334 44.0528C901.029 37.6234 892.725 34.4156 883.795 34.9989ZM868.811 77.7135C877.629 72.0061 880.17 75.5749 877.574 82.0182C873.38 92.3081 853.979 154.214 709.926 272.47C672.333 303.256 645.6 320.545 591.467 352.595C680.11 228.381 809.526 116.207 868.811 77.7135Z" fill="#6EBE44"/>
<path d="M774.932 160.185L172.861 289.592L149.641 352.206L776.807 199.706L796.208 188.749L795.666 160.254L774.932 160.185Z" fill="#49266C"/>
</svg>
