<svg width="165" height="44" viewBox="0 0 165 44" fill="none" xmlns="http://www.w3.org/2000/svg">
<path d="M48.5268 10.4233L46.0473 10.4117H42.2082C41.9437 10.4117 39.8834 10.4315 39.8834 10.4315L39.8469 13.7615L39.4707 13.773L39.4941 10.0305L39.4792 8.49289C40.7888 8.55615 45.5165 8.59776 50.4222 8.59776C56.1433 8.59776 59.8293 8.54123 61.2754 8.49791L61.2588 10.2002L61.2887 13.9861L60.8994 13.981C60.9011 13.6732 60.8361 12.4167 60.8396 12.2936C60.8413 12.2487 60.7564 10.5613 60.7463 10.4349L59.1038 10.4116H54.1813L52.296 10.4182L52.2977 33.7689C52.2977 33.8022 52.3327 35.3016 52.341 35.6127C52.5308 35.6394 54.3545 35.7641 54.684 35.7658L54.8121 35.7641L54.8139 36.3998C54.714 36.3998 54.5925 36.4114 54.4911 36.4097C53.4543 36.3981 51.7819 36.2732 50.5938 36.2732C49.424 36.2732 47.7731 36.3897 46.5533 36.408C46.52 36.4098 46.2704 36.4032 46.1771 36.3982L46.1738 35.7192C46.1872 35.7209 46.2603 35.7192 46.3751 35.7142C46.891 35.6942 48.1608 35.6093 48.4903 35.581L48.5435 35.5728L48.5268 10.4233ZM80.043 8.46132C80.043 8.46132 81.8918 14.2058 82.193 15.0478C82.4942 15.8882 88.1439 30.4273 88.1439 30.4273C88.1439 30.4273 90.7964 24.1637 93.1595 17.4425C93.6388 16.0812 94.2662 14.3073 94.7288 12.8695L96.15 8.45947H97.6044C97.6044 8.45947 97.9655 11.0273 98.0919 12.1721C98.4646 15.4989 100.894 29.0196 101.748 33.4677C101.961 34.5811 102.122 35.5429 102.122 35.5429C102.372 35.5612 103.356 35.6594 103.938 35.7076C104.059 35.7176 104.386 35.736 104.46 35.736L104.464 36.4048C104.464 36.4048 104.199 36.4197 104.054 36.4197C102.751 36.4115 100.719 36.2933 99.468 36.2933C98.3531 36.2933 97.2813 36.3897 96.1665 36.4131C95.9767 36.4181 95.7853 36.4081 95.5923 36.4081V35.7457C95.599 35.744 95.7471 35.7358 95.8253 35.7391C96.3695 35.7124 97.8123 35.571 97.9553 35.5644C97.957 35.3214 97.8771 34.4794 97.7606 33.6189C97.6791 33.0116 97.541 31.9732 97.3945 30.9499C97.0767 28.9612 95.6074 20.7206 95.1714 18.4325C95.0998 18.0564 95.0548 17.8468 95.0548 17.8468C95.0548 17.8468 90.5052 29.5205 89.5882 31.8203C89.4984 32.0448 89.4335 32.2046 89.4136 32.2577C88.5364 34.4727 87.7993 36.4464 87.7993 36.4464L86.5063 36.4397L79.4155 18.2145L79.2475 17.7901C79.2475 17.7901 78.6284 21.2065 77.7349 26.0274C77.264 28.6333 76.2853 35.1466 76.2188 35.576C76.7829 35.6592 77.893 35.749 78.1958 35.7407C78.2657 35.7407 78.3839 35.7424 78.4721 35.7424V36.4014C78.3456 36.4197 78.0495 36.4212 78.0377 36.4212C76.9676 36.3979 76.1957 36.3164 75.0408 36.3164C74.7379 36.3164 73.132 36.3996 72.5663 36.4195C72.33 36.4312 71.9971 36.4047 71.9322 36.4062L71.934 35.7541C71.9889 35.7541 72.1004 35.7307 72.172 35.729C72.6845 35.7057 73.4716 35.6275 74.139 35.5393C74.1939 35.2181 74.7713 32.0081 74.9544 30.8715C75.6633 27.1056 77.7518 14.5301 78.0147 12.8344C78.2443 11.0021 78.5105 8.72402 78.5339 8.47281C79.0879 8.48298 80.043 8.46132 80.043 8.46132ZM70.6276 36.4265C69.6658 36.4265 68.0349 36.2666 66.8118 36.2666C65.602 36.2666 63.9612 36.4247 62.7798 36.4247C62.6798 36.4265 62.5019 36.4048 62.4053 36.4048V35.7408C62.6383 35.736 63.6816 35.641 63.9728 35.6193C64.3122 35.5945 64.6286 35.5779 64.7666 35.533C64.7666 35.533 64.7699 34.7342 64.7733 33.4944C64.7867 29.2093 64.8116 17.0996 64.7716 11.6181C64.7683 10.8665 64.7661 10.1149 64.765 9.36327C64.5436 9.34161 64.234 9.31163 64.0128 9.28178C63.7349 9.26685 62.5934 9.15855 62.3986 9.14693L62.3936 8.48457C63.5252 8.48457 65.206 8.59934 66.5688 8.59934C67.8717 8.59934 69.6407 8.48444 70.9769 8.48444L70.9753 9.17519C70.7623 9.19012 70.2463 9.22182 70.2296 9.2234C69.8403 9.2617 68.747 9.38493 68.4791 9.40302V11.5347C68.4774 16.4423 68.4741 29.2792 68.4724 33.6025V35.0036C68.4707 35.3331 68.4741 35.5311 68.4774 35.5444C68.484 35.5677 69.168 35.6327 69.3261 35.6426C69.6272 35.6776 70.8703 35.7324 70.9085 35.7407H70.9901V36.4047C70.9088 36.4047 70.7108 36.4265 70.6276 36.4265ZM111.343 10.4849L111.338 21.4745L118.394 21.4979C118.427 21.4979 120.261 21.4411 120.306 21.4411C120.418 21.4411 121.677 21.3681 121.726 21.3513C121.726 21.3513 121.745 21.2364 121.774 21.1532C121.877 20.4875 122.005 19.857 122.038 19.3627C122.038 19.3627 122.072 19.1531 122.073 19.01L122.474 19.0017C122.476 19.0516 122.496 19.178 122.494 19.3577C122.489 20.0201 122.441 21.3963 122.443 22.2964C122.446 23.5961 122.481 24.766 122.488 25.3552C122.493 25.5216 122.483 25.7894 122.483 25.7894H122.042C122.035 25.7244 122.026 25.6595 122.017 25.5948C121.94 24.8475 121.877 24.3184 121.761 23.5546C121.757 23.5163 121.732 23.3781 121.724 23.2916C121.499 23.2767 120.905 23.255 120.589 23.245C120.451 23.2417 118.732 23.2284 116.797 23.2265C116.004 23.2249 114.578 23.2632 113.974 23.2616C113.267 23.2616 112.099 23.3065 111.337 23.3348L111.343 33.2978L111.373 34.5825L115.657 34.6574L121.757 34.6508C121.786 34.6508 123.153 34.5959 123.583 34.6041C123.673 34.6058 123.856 34.5907 123.856 34.5907C123.896 34.2679 123.946 33.6155 123.995 32.9931C124 32.92 124.154 31.2676 124.154 30.8231L124.528 30.8181C124.528 31.2392 124.448 36.4595 124.448 36.4595C123.761 36.4595 121.651 36.4562 119.043 36.418C117.464 36.3963 115.703 36.3963 113.964 36.3712C112.556 36.3496 111.162 36.2997 109.896 36.3012C108.087 36.3031 106.318 36.4228 105.63 36.4228C105.472 36.4246 105.194 36.413 105.135 36.413V35.7555H105.261C105.685 35.7522 106.932 35.6789 107.581 35.5592C107.581 35.4278 107.624 33.802 107.624 33.7687L107.622 12.2102C107.622 11.2134 107.604 9.55095 107.604 9.40448C107.236 9.36116 107.105 9.33791 107.028 9.32127C106.637 9.26633 105.867 9.19976 105.456 9.16978C105.353 9.1717 105.249 9.16392 105.148 9.14653C105.148 9.14653 105.146 8.50094 105.143 8.49249C105.236 8.49751 105.429 8.4843 105.773 8.48589C106.501 8.4876 107.839 8.59578 109.474 8.59736C110.503 8.59908 112.16 8.54915 113.348 8.53251C115.041 8.53251 116.327 8.51759 117.966 8.50583C120.644 8.48919 122.93 8.46925 123.824 8.46594C124.085 8.46423 124.227 8.46264 124.227 8.46264C124.227 8.51415 124.225 8.57253 124.225 8.64068C124.227 8.84698 124.218 9.21151 124.222 9.6574C124.228 11.0468 124.263 13.2319 124.263 13.9458L123.887 13.9475L123.884 13.7511C123.846 13.2636 123.764 11.8874 123.661 10.7292C123.651 10.626 123.632 10.5461 123.632 10.5461C123.41 10.5378 122.494 10.5078 122.478 10.4945C122.463 10.4812 121.734 10.4694 121.719 10.4612C121.712 10.4579 119.318 10.4427 116.848 10.4413C115.164 10.4397 113.506 10.4513 112.49 10.4513C112.24 10.45 111.343 10.4849 111.343 10.4849Z" fill="#E90606"/>
</svg>
