<svg width="347" height="110" viewBox="0 0 347 110" fill="none" xmlns="http://www.w3.org/2000/svg">
<path d="M136.639 60.1442C136.639 66.7025 142.61 71.8475 152.064 71.8475H160.737V65.6283H152.846C147.799 65.6283 144.956 63.2538 144.956 60.1442C144.956 57.0346 147.728 54.66 152.846 54.66H160.737V48.4409H152.064C142.61 48.4409 136.639 53.5858 136.639 60.1442Z" fill="#CC0033"/>
<path d="M232.104 48.1587C228.906 48.1587 225.92 48.6675 222.082 50.7594C218.243 48.6675 215.258 48.1587 212.059 48.1587C204.95 48.1587 200.046 52.0598 200.046 57.6005V71.9045H208.362V57.9397C208.362 55.5651 210.211 54.3778 213.196 54.3778C216.182 54.3778 217.959 55.6216 217.959 57.657V71.9045H226.276V57.657C226.276 55.6216 227.839 54.3778 231.038 54.3778C234.237 54.3778 235.872 55.5651 235.872 57.9397V71.9045H244.189V57.6005C244.189 52.0032 239.213 48.1587 232.176 48.1587H232.104Z" fill="#CC0033"/>
<path d="M264.163 48.1587C254.282 48.1587 248.667 54.2647 248.667 60.2012C248.667 66.1376 254.282 72.1871 264.163 72.1871C274.044 72.1871 279.588 66.0246 279.588 60.2012C279.588 54.3778 273.973 48.1587 264.163 48.1587ZM264.092 65.968C259.471 65.968 256.984 63.0846 256.984 60.1447C256.984 57.2047 259.471 54.3213 264.092 54.3213C268.712 54.3213 271.271 57.2047 271.271 60.1447C271.271 63.0846 268.783 65.968 264.092 65.968Z" fill="#CC0033"/>
<path d="M88.8707 37.812V49.6284C86.8803 48.7238 84.4635 48.1584 81.6912 48.1584C71.7395 48.1584 66.4082 54.321 66.4082 60.2009C66.4082 66.0808 71.7395 72.1868 81.6912 72.1868C91.643 72.1868 91.9984 69.3034 97.2586 67.3811V37.812H88.9418H88.8707ZM74.6539 60.1443C74.6539 57.2044 77.1419 54.321 81.7623 54.321C86.3828 54.321 88.7996 57.0913 88.8707 59.9747V60.2574C88.7996 63.1408 86.3828 65.9112 81.7623 65.9112C77.1419 65.9112 74.6539 63.0278 74.6539 60.0878V60.1443Z" fill="#CC0033"/>
<path d="M121.853 37.812V39.3951H118.939V45.2184H116.807V39.3951H113.892V37.812H121.925H121.853Z" fill="#CC0033"/>
<path d="M131.45 37.812V39.3951H128.536V45.2184H126.403V39.3951H123.489V37.812H131.521H131.45Z" fill="#CC0033"/>
<path d="M105.718 37.812L109.983 42.5612V37.812H112.044V45.2184H109.77L105.576 40.4693V45.2184H103.514V37.812H105.789H105.718Z" fill="#CC0033"/>
<path d="M117.304 48.1587C107.424 48.1587 101.808 54.2647 101.808 60.2012C101.808 66.1376 107.424 72.1871 117.304 72.1871C127.185 72.1871 132.73 66.0246 132.73 60.2012C132.73 54.3778 127.114 48.1587 117.304 48.1587ZM117.304 65.968C112.684 65.968 110.196 63.0846 110.196 60.1447C110.196 57.2047 112.684 54.3213 117.304 54.3213C121.925 54.3213 124.484 57.2047 124.484 60.1447C124.484 63.0846 121.996 65.968 117.304 65.968Z" fill="#CC0033"/>
<path d="M180.071 48.1587C170.191 48.1587 164.575 54.2647 164.575 60.2012C164.575 66.1376 170.191 72.1871 180.071 72.1871C189.952 72.1871 195.497 66.0246 195.497 60.2012C195.497 54.3778 189.881 48.1587 180.071 48.1587ZM180.071 65.968C175.451 65.968 172.963 63.0846 172.963 60.1447C172.963 57.2047 175.451 54.3213 180.071 54.3213C184.692 54.3213 187.251 57.2047 187.251 60.1447C187.251 63.0846 184.763 65.968 180.071 65.968Z" fill="#CC0033"/>
</svg>
