<svg width="347" height="110" viewBox="0 0 347 110" fill="none" xmlns="http://www.w3.org/2000/svg">
<g clip-path="url(#clip0_683_2904)">
<mask id="mask0_683_2904" style="mask-type:luminance" maskUnits="userSpaceOnUse" x="112" y="40" width="124" height="31">
<path d="M235.59 40.625H112.51V70.0138H235.59V40.625Z" fill="white"/>
</mask>
<g mask="url(#mask0_683_2904)">
<path d="M141.371 44.9379L141.221 45.0043C140.311 44.1656 139.248 43.5046 138.087 43.0565C135.554 42.1051 132.757 42.0839 130.209 42.9969C129.074 43.4212 128.045 44.0834 127.195 44.9379C126.325 45.8289 125.656 46.891 125.231 48.0546C124.743 49.4025 124.506 50.826 124.53 52.2569C124.516 53.8927 124.741 55.522 125.197 57.0948C125.599 58.5056 126.274 59.8262 127.186 60.9836C128.071 62.0824 129.2 62.9662 130.486 63.567C131.806 64.1941 133.346 64.5077 135.106 64.5077C135.745 64.5068 136.383 64.4383 137.007 64.3032C137.637 64.1697 138.251 63.968 138.836 63.7016C139.42 63.4382 139.974 63.1149 140.49 62.7371C141.008 62.3583 141.482 61.9233 141.902 61.4403L142.087 61.5596L140.753 65.024C139.859 65.367 138.933 65.6194 137.987 65.7772C136.981 65.9524 135.96 66.0401 134.938 66.0396C133.014 66.0621 131.101 65.7554 129.283 65.1331C127.653 64.5767 126.153 63.7041 124.872 62.5667C123.633 61.4521 122.651 60.089 121.992 58.5689C121.291 56.9317 120.941 55.1689 120.966 53.3919C120.964 52.3231 121.101 51.2585 121.373 50.224C121.645 49.1901 122.046 48.1939 122.57 47.2588C123.095 46.3162 123.747 45.4473 124.507 44.6754C125.287 43.88 126.173 43.1921 127.139 42.6305C128.16 42.0402 129.255 41.5874 130.398 41.2843C131.653 40.9536 132.949 40.7914 134.249 40.802C136.287 40.783 138.312 41.1211 140.231 41.8006L141.371 44.9379Z" fill="black"/>
<path d="M156.115 40.8035C157.878 40.7853 159.627 41.0982 161.271 41.7254C162.796 42.3096 164.185 43.1918 165.355 44.319C166.521 45.458 167.437 46.821 168.046 48.3236C168.708 49.9678 169.036 51.7236 169.014 53.4922C169.015 54.5584 168.892 55.6213 168.648 56.66C168.409 57.6817 168.047 58.6715 167.569 59.6081C167.098 60.5317 166.512 61.3938 165.823 62.1745C165.135 62.9577 164.34 63.6425 163.459 64.2092C162.548 64.7896 161.559 65.24 160.521 65.5469C159.399 65.8759 158.234 66.0384 157.064 66.0291C155.304 66.0471 153.555 65.7396 151.91 65.1226C150.38 64.5554 148.986 63.6793 147.82 62.5504C146.653 61.4215 145.738 60.0647 145.134 58.5669C144.471 56.9205 144.142 55.1614 144.166 53.3899C144.165 52.3236 144.288 51.2606 144.533 50.222C144.773 49.1955 145.135 48.2003 145.611 47.2569C146.079 46.3278 146.663 45.4599 147.348 44.6735C148.746 43.0643 150.586 41.8873 152.646 41.284C153.772 40.9553 154.941 40.7934 156.115 40.8035ZM157.067 64.5074C158.235 64.5203 159.391 64.2879 160.461 63.8258C161.482 63.3756 162.387 62.704 163.108 61.8609C163.887 60.9338 164.474 59.8658 164.837 58.7169C165.267 57.3543 165.475 55.933 165.454 54.5061C165.467 52.8756 165.269 51.2501 164.861 49.6699C164.513 48.2882 163.916 46.9796 163.098 45.8067C162.344 44.7402 161.344 43.8644 160.182 43.2506C159.019 42.6348 157.663 42.327 156.113 42.327C154.948 42.3128 153.792 42.541 152.722 42.9966C151.702 43.4385 150.797 44.1021 150.074 44.9376C149.295 45.854 148.708 46.9132 148.346 48.0544C147.915 49.414 147.707 50.8325 147.729 52.2567C147.716 53.8871 147.912 55.5126 148.313 57.0946C148.655 58.4846 149.249 59.8021 150.067 60.9833C150.824 62.0579 151.826 62.9426 152.992 63.5667C154.16 64.1972 155.519 64.5125 157.067 64.5125V64.5074Z" fill="black"/>
<path d="M112.51 65.9624C112.594 65.6617 112.66 65.3561 112.707 65.0473C112.766 64.6838 112.819 64.2293 112.868 63.6841C112.916 63.1387 112.952 62.4968 112.975 61.7584C112.999 61.0132 113.011 60.1424 113.011 59.146V47.6929C113.011 46.6965 112.999 45.8257 112.975 45.0805C112.951 44.3352 112.915 43.6899 112.868 43.1446C112.819 42.5993 112.766 42.1449 112.707 41.7814C112.66 41.4726 112.594 41.167 112.51 40.8663V40.7964H116.776V40.8663C116.705 41.1116 116.637 41.4167 116.57 41.7814C116.503 42.146 116.449 42.6005 116.409 43.1446C116.368 43.6899 116.332 44.3352 116.302 45.0805C116.272 45.8257 116.258 46.6965 116.259 47.6929V59.146C116.259 60.1435 116.273 61.0143 116.302 61.7584C116.331 62.5025 116.366 63.1444 116.409 63.6841C116.451 64.2237 116.504 64.6781 116.57 65.0473C116.636 65.4165 116.704 65.7216 116.776 65.9624V66.0323H112.51V65.9624Z" fill="black"/>
<path d="M201.208 65.9392C201.291 65.638 201.357 65.3325 201.406 65.0241C201.464 64.6606 201.517 64.2061 201.565 63.6608C201.612 63.1155 201.647 62.4736 201.671 61.7352C201.696 60.9911 201.708 60.1203 201.708 59.1228V47.6696C201.708 46.6722 201.696 45.8008 201.671 45.0555C201.647 44.3103 201.612 43.6656 201.565 43.1214C201.519 42.5761 201.466 42.1217 201.406 41.7581C201.357 41.4497 201.291 41.1442 201.208 40.843V40.7715H205.476V40.843C205.392 41.1444 205.324 41.4498 205.272 41.7581C205.206 42.1217 205.153 42.5761 205.111 43.1214C205.07 43.6667 205.034 44.3114 205.004 45.0555C204.975 45.8019 204.96 46.6733 204.959 47.6696V59.1228C204.959 60.1192 204.974 60.9899 205.004 61.7352C205.034 62.4804 205.07 63.1223 205.111 63.6608C205.153 64.2016 205.206 64.656 205.272 65.0241C205.324 65.3324 205.392 65.6378 205.476 65.9392V66.0091H201.208V65.9392Z" fill="black"/>
<path d="M174.347 40.8037L192.668 60.0207V47.6763C192.668 46.6823 192.656 45.8143 192.632 45.0725C192.609 44.3312 192.573 43.687 192.527 43.1434C192.48 42.5998 192.421 42.1482 192.354 41.7801C192.286 41.4121 192.22 41.1138 192.149 40.8685V40.7986H195.314V40.8685C195.231 41.1683 195.166 41.4728 195.119 41.7801C195.06 42.1431 195.007 42.5947 194.958 43.1434C194.91 43.6921 194.875 44.3363 194.853 45.0725C194.83 45.8086 194.816 46.6828 194.816 47.6763V66.2986H194.194L175.873 47.0986V59.092C175.873 60.0849 175.885 60.9529 175.909 61.6958C175.933 62.4388 175.968 63.0778 176.016 63.6164C176.065 64.1548 176.117 64.603 176.175 64.966C176.224 65.3008 176.29 65.633 176.372 65.9612V66.0311H173.209V65.9612C173.28 65.7158 173.347 65.329 173.413 64.966C173.479 64.603 173.536 64.1532 173.586 63.6164C173.636 63.0796 173.669 62.4388 173.693 61.6958C173.718 60.9529 173.728 60.0855 173.728 59.092V47.6746C173.728 46.6805 173.716 45.8126 173.693 45.0707C173.669 44.3295 173.633 43.6853 173.586 43.1417C173.539 42.5981 173.482 42.1465 173.413 41.7784C173.344 41.4103 173.28 41.1121 173.209 40.8667V40.7969L174.347 40.8037Z" fill="black"/>
<path d="M234.608 48.251C233.997 46.7271 233.07 45.3453 231.888 44.1936C230.705 43.0418 229.293 42.1452 227.74 41.5608C226.074 40.9247 224.301 40.6072 222.514 40.6252C221.325 40.6157 220.14 40.7805 218.999 41.1143C216.911 41.7266 215.046 42.9194 213.629 44.5498C212.935 45.3476 212.344 46.2274 211.871 47.169C211.388 48.1252 211.022 49.1341 210.778 50.175C210.53 51.2281 210.404 52.3059 210.405 53.3872C210.381 55.1833 210.715 56.9667 211.389 58.6358C212 60.1544 212.928 61.5302 214.11 62.6747C215.293 63.8192 216.706 64.7072 218.257 65.2817C219.617 65.7944 221.049 66.094 222.503 66.1695C222.821 66.1895 223.131 66.273 223.415 66.415C223.879 66.6421 224.33 66.8924 224.768 67.1648C226.54 68.3576 228.806 69.3664 230.863 70.0106L231.482 69.7362C231.359 69.6612 231.257 69.5965 231.153 69.5351C229.913 68.8325 228.771 67.9732 227.757 66.979C227.378 66.6297 227.074 66.2083 226.863 65.7401C226.905 65.7282 226.948 65.718 226.99 65.7044C228.041 65.3912 229.042 64.9322 229.962 64.3411C230.855 63.7675 231.662 63.0735 232.36 62.2791C233.057 61.4873 233.651 60.6133 234.13 59.677C234.614 58.7272 234.98 57.7237 235.222 56.688C235.471 55.6349 235.596 54.5571 235.596 53.4758C235.615 51.6875 235.279 49.9127 234.608 48.251ZM231.357 58.7909C230.989 59.9557 230.393 61.0382 229.603 61.9775C228.872 62.8325 227.954 63.5135 226.919 63.9696C225.834 64.4352 224.662 64.6676 223.479 64.6512C221.91 64.6512 220.532 64.3337 219.346 63.6987C218.164 63.0659 217.149 62.1689 216.382 61.0795C215.551 59.8825 214.949 58.5462 214.604 57.1362C214.198 55.5325 213.998 53.8847 214.011 52.2318C213.989 50.788 214.2 49.35 214.636 47.9716C215.004 46.8141 215.6 45.7397 216.391 44.8105C217.124 43.9645 218.042 43.2924 219.075 42.844C220.161 42.3815 221.332 42.1492 222.514 42.1623C224.084 42.1623 225.459 42.4742 226.639 43.0979C227.817 43.7212 228.83 44.6098 229.594 45.6915C230.424 46.8815 231.03 48.2092 231.382 49.6109C231.795 51.2135 231.997 52.8618 231.983 54.5153C232.005 55.9641 231.794 57.4073 231.357 58.7909Z" fill="black"/>
</g>
</g>
<defs>
<clipPath id="clip0_683_2904">
<rect width="124.559" height="29.3677" fill="white" transform="translate(111.815 40.625)"/>
</clipPath>
</defs>
</svg>
