<svg width="347" height="110" viewBox="0 0 347 110" fill="none" xmlns="http://www.w3.org/2000/svg">
<g clip-path="url(#clip0_692_757)">
<path d="M166.63 45.4419H104.297V62.2354H166.63V45.4419Z" fill="white"/>
<path d="M128.014 51.8104C128.209 52.0867 128.292 52.4736 128.32 52.888H125.046C125.102 52.4459 125.24 52.0867 125.407 51.8104C125.684 51.3958 126.128 51.1472 126.711 51.1472C127.321 51.1472 127.737 51.3682 128.014 51.8104ZM115.115 54.1314C114.838 54.3249 114.699 54.6289 114.699 55.0157C114.699 55.2643 114.754 55.4578 114.838 55.6237C114.893 55.7065 114.921 55.7617 115.115 55.8999C115.115 55.8999 115.531 56.2316 116.474 56.1762C117.14 56.1486 117.723 56.0104 117.723 56.0104V53.9104C117.723 53.9104 117.14 53.7999 116.474 53.7999C115.503 53.7722 115.115 54.1314 115.115 54.1314ZM145.213 51.1748C144.603 51.1748 144.187 51.3958 143.91 51.8104C143.632 52.2524 143.494 52.8604 143.494 53.634C143.494 54.4078 143.632 55.0433 143.91 55.4855C144.187 55.9276 144.631 56.1211 145.213 56.1211C145.824 56.1211 146.24 55.8999 146.545 55.4855C146.822 55.0433 146.989 54.4354 146.989 53.634C146.989 52.8604 146.85 52.2249 146.545 51.8104C146.268 51.3682 145.824 51.1748 145.213 51.1748ZM174.757 52.3354C174.757 61.8409 167.101 69.5227 157.641 69.5227C156.476 69.5227 155.366 69.4122 154.257 69.1912C152.121 73.0043 148.015 75.5742 143.355 75.5742C141.385 75.5742 139.527 75.132 137.89 74.3308C135.726 79.415 130.65 82.9797 124.769 82.9797C118.61 82.9797 113.395 79.1112 111.37 73.6675C110.482 73.861 109.567 73.9439 108.651 73.9439C101.328 73.9716 95.3916 68.0029 95.3916 60.6251C95.3916 55.6789 98.0547 51.3682 102.022 49.0748C101.217 47.1958 100.746 45.151 100.746 42.968C100.746 34.5125 107.653 27.6597 116.169 27.6597C121.163 27.6597 125.601 30.0361 128.431 33.6835C130.983 31.0308 134.561 29.3729 138.5 29.3729C143.743 29.3729 148.32 32.2743 150.734 36.6126C152.842 35.6731 155.2 35.148 157.641 35.148C167.101 35.148 174.757 42.8575 174.757 52.3354ZM112.396 55.071C112.396 53.7999 111.259 53.3302 110.177 52.971L110.039 52.9156C109.234 52.6669 108.541 52.4183 108.541 51.8932V51.8656C108.541 51.4235 108.957 51.092 109.567 51.092C110.261 51.092 111.093 51.313 111.648 51.6169C111.648 51.6169 111.814 51.7275 111.869 51.5617C111.897 51.4788 112.175 50.7603 112.202 50.6774C112.23 50.5946 112.175 50.5393 112.119 50.4839C111.509 50.1247 110.649 49.8485 109.789 49.8485H109.622C108.125 49.8485 107.098 50.7326 107.098 52.0314V52.0591C107.098 53.413 108.235 53.8552 109.317 54.1591L109.484 54.2144C110.261 54.4631 110.954 54.6565 110.954 55.2092V55.2368C110.954 55.7342 110.51 56.1211 109.817 56.1211C109.539 56.1211 108.679 56.1211 107.708 55.513C107.597 55.4578 107.542 55.4025 107.431 55.3473C107.375 55.3197 107.265 55.2643 107.209 55.4302L106.876 56.3144C106.821 56.4526 106.904 56.4803 106.904 56.4803C107.043 56.5908 107.209 56.6736 107.348 56.7566C108.152 57.171 108.929 57.3092 109.733 57.3092C111.37 57.3645 112.396 56.4803 112.396 55.071ZM119.165 56.7566V52.5564C119.165 51.6445 118.916 50.9538 118.444 50.5393C117.972 50.1247 117.251 49.9037 116.336 49.9037C116.003 49.9037 115.448 49.959 115.115 50.0142C115.115 50.0142 114.116 50.2077 113.7 50.5393C113.7 50.5393 113.617 50.5946 113.673 50.7326L114.005 51.6169C114.033 51.7275 114.144 51.6999 114.144 51.6999C114.144 51.6999 114.172 51.6722 114.227 51.6722C115.115 51.2025 116.225 51.2025 116.225 51.2025C116.724 51.2025 117.112 51.313 117.362 51.5064C117.612 51.6999 117.75 51.9762 117.75 52.6118V52.8051C117.362 52.7498 117.001 52.7223 117.001 52.7223C116.807 52.7223 116.585 52.6946 116.28 52.6946C115.892 52.6946 115.503 52.7498 115.143 52.8328C114.782 52.9156 114.449 53.0815 114.172 53.2748C113.895 53.4683 113.673 53.717 113.506 54.0209C113.34 54.3249 113.256 54.6841 113.256 55.071C113.256 55.4855 113.34 55.817 113.478 56.1211C113.617 56.3973 113.811 56.646 114.089 56.8395C114.338 57.0328 114.671 57.171 115.032 57.254C115.392 57.3368 115.809 57.3922 116.252 57.3922C116.724 57.3922 117.196 57.3645 117.639 57.2815C118.083 57.1987 118.638 57.0881 118.805 57.0605C118.943 57.0328 119.137 56.9776 119.137 56.9776C119.165 56.8671 119.165 56.7566 119.165 56.7566ZM122.133 47.251C122.133 47.1681 122.078 47.1128 121.995 47.1128H120.774C120.691 47.1128 120.635 47.1681 120.635 47.251V57.0328C120.635 57.1158 120.691 57.171 120.774 57.171H121.995C122.078 57.171 122.133 57.1158 122.133 57.0328V47.251ZM129.623 51.9209C129.512 51.4788 129.235 51.0366 129.041 50.8433C128.736 50.5116 128.458 50.2906 128.181 50.1801C127.792 50.0142 127.349 49.9037 126.877 49.9037C126.294 49.9037 125.767 50.0142 125.351 50.2077C124.935 50.4011 124.575 50.6774 124.297 51.009C124.02 51.3407 123.798 51.755 123.687 52.1972C123.548 52.6393 123.493 53.1367 123.493 53.6617C123.493 54.1867 123.576 54.6841 123.715 55.1263C123.853 55.5684 124.075 55.9552 124.38 56.2868C124.686 56.6184 125.074 56.8671 125.545 57.0605C126.017 57.2263 126.572 57.3368 127.21 57.3368C128.541 57.3368 129.235 57.0328 129.54 56.8671C129.596 56.8395 129.651 56.7841 129.568 56.646L129.263 55.817C129.207 55.6789 129.096 55.7342 129.096 55.7342C128.763 55.8447 128.292 56.0657 127.21 56.0657C126.489 56.0657 125.962 55.8447 125.629 55.513C125.296 55.1815 125.129 54.6841 125.102 53.9934H129.707C129.707 53.9934 129.818 53.9934 129.845 53.8827C129.762 53.8552 129.901 52.9433 129.623 51.9209ZM136.225 55.0986C136.225 53.7999 135.088 53.3302 134.006 52.971L133.868 52.9156C133.063 52.6669 132.37 52.4183 132.37 51.8932V51.8656C132.37 51.4235 132.786 51.092 133.396 51.092C134.09 51.092 134.922 51.313 135.477 51.6169C135.477 51.6169 135.643 51.7275 135.698 51.5617C135.726 51.4788 136.004 50.7603 136.031 50.6774C136.059 50.5946 136.004 50.5393 135.948 50.4839C135.338 50.1247 134.478 49.8485 133.618 49.8485H133.451C131.954 49.8485 130.927 50.7326 130.927 52.0314V52.0591C130.927 53.413 132.065 53.8552 133.146 54.1591L133.313 54.2144C134.09 54.4631 134.783 54.6565 134.783 55.2092V55.2368C134.783 55.7342 134.339 56.1211 133.646 56.1211C133.368 56.1211 132.508 56.1211 131.537 55.513C131.426 55.4578 131.343 55.4025 131.26 55.3473C131.232 55.3197 131.094 55.2643 131.038 55.4302L130.705 56.3144C130.65 56.4526 130.733 56.4803 130.733 56.4803C130.872 56.5908 131.038 56.6736 131.177 56.7566C131.981 57.171 132.758 57.3092 133.562 57.3092C135.199 57.3645 136.225 56.4803 136.225 55.0986ZM141.774 50.2077C141.774 50.1247 141.746 50.0695 141.635 50.0695H140.165C140.165 50.0419 140.248 49.5169 140.414 49.0471C140.498 48.8261 140.609 48.6603 140.747 48.5498C140.858 48.4392 140.997 48.3563 141.136 48.3011C141.274 48.2457 141.441 48.2181 141.635 48.2181C141.774 48.2181 141.912 48.2457 142.023 48.2457C142.162 48.2734 142.217 48.3011 142.273 48.3011C142.412 48.3563 142.439 48.3011 142.467 48.2181L142.828 47.251C142.856 47.1405 142.772 47.1128 142.745 47.0853C142.606 47.03 142.467 47.0023 142.301 46.9746C142.134 46.9471 141.912 46.9195 141.663 46.9195C140.83 46.9195 140.165 47.1681 139.721 47.6102C139.277 48.08 138.944 48.7708 138.805 49.6827L138.75 49.9866H137.696C137.696 49.9866 137.557 49.9866 137.529 50.1247L137.363 51.092C137.363 51.1748 137.391 51.2301 137.502 51.2301H138.528L137.502 56.9776C137.418 57.4474 137.335 57.8066 137.224 58.1106C137.113 58.3869 137.03 58.6079 136.891 58.7738C136.78 58.9118 136.669 59.0225 136.475 59.1053C136.309 59.1605 136.142 59.1882 135.92 59.1882C135.809 59.1882 135.671 59.1605 135.56 59.1605C135.449 59.133 135.393 59.1053 135.31 59.0777C135.31 59.0777 135.199 59.0225 135.144 59.1605C135.116 59.2711 134.838 59.9896 134.811 60.1001C134.783 60.1829 134.811 60.2659 134.894 60.2934C135.033 60.3488 135.144 60.3764 135.31 60.4041C135.56 60.4593 135.782 60.4593 135.976 60.4593C136.392 60.4593 136.78 60.4041 137.113 60.2934C137.446 60.1829 137.724 59.9896 137.973 59.7132C138.251 59.4092 138.417 59.1053 138.556 58.6908C138.722 58.2763 138.861 57.7514 138.972 57.1433L139.998 51.313H141.524C141.524 51.313 141.663 51.313 141.69 51.1748L141.774 50.2077ZM148.542 53.634C148.542 53.1091 148.487 52.6393 148.348 52.1696C148.209 51.7275 148.015 51.313 147.738 50.9814C147.46 50.6498 147.1 50.3734 146.684 50.1801C146.268 49.9866 145.768 49.8761 145.241 49.8761C144.686 49.8761 144.187 49.9866 143.771 50.1801C143.355 50.3734 142.994 50.6498 142.717 50.9814C142.439 51.313 142.245 51.6999 142.106 52.1696C141.968 52.6118 141.912 53.1091 141.912 53.634C141.912 54.1591 141.968 54.6565 142.106 55.0986C142.245 55.5407 142.439 55.9552 142.717 56.2868C142.994 56.6184 143.355 56.8947 143.771 57.0605C144.187 57.254 144.686 57.3368 145.241 57.3368C145.796 57.3368 146.268 57.254 146.684 57.0605C147.1 56.8671 147.46 56.6184 147.738 56.2868C148.015 55.9552 148.209 55.5684 148.348 55.0986C148.487 54.6289 148.542 54.1591 148.542 53.634ZM153.952 50.1247C153.868 50.0972 153.48 50.0142 153.175 49.9866C152.592 49.959 152.287 50.0419 151.982 50.1801C151.705 50.3182 151.372 50.5116 151.205 50.7603V50.2077C151.205 50.1247 151.15 50.0695 151.067 50.0695H149.902C149.818 50.0695 149.763 50.1247 149.763 50.2077V57.0328C149.763 57.1158 149.818 57.171 149.902 57.171H151.122C151.205 57.171 151.261 57.1158 151.261 57.0328V53.634C151.261 53.1643 151.316 52.7223 151.427 52.4183C151.538 52.1419 151.649 51.9209 151.843 51.755C152.01 51.5893 152.204 51.4788 152.398 51.4235C152.62 51.3682 152.842 51.3407 153.008 51.3407C153.258 51.3407 153.508 51.3958 153.508 51.3958C153.591 51.3958 153.647 51.3407 153.674 51.2577C153.758 51.0366 153.979 50.4288 154.007 50.2906C154.063 50.2077 153.979 50.1524 153.952 50.1247ZM159.833 56.8118L159.5 55.8999C159.444 55.7617 159.333 55.817 159.333 55.817C159.139 55.8999 158.917 55.9552 158.695 55.9829C158.473 56.0104 158.224 56.0381 157.946 56.0381C157.281 56.0381 156.754 55.8447 156.393 55.4578C156.032 55.071 155.81 54.4631 155.81 53.6065C155.81 52.8328 156.004 52.2524 156.337 51.8104C156.67 51.3682 157.17 51.1472 157.835 51.1472C158.39 51.1472 158.834 51.2025 159.278 51.3407C159.278 51.3407 159.389 51.3958 159.444 51.2577C159.555 50.9261 159.638 50.7051 159.777 50.3459C159.805 50.2353 159.722 50.2077 159.694 50.1801C159.528 50.0972 159.111 49.9866 158.778 49.959C158.473 49.9037 158.141 49.9037 157.752 49.9037C157.17 49.9037 156.67 50.0142 156.226 50.1801C155.783 50.3734 155.422 50.6498 155.117 50.9814C154.839 51.313 154.59 51.6999 154.451 52.1696C154.312 52.6118 154.229 53.1091 154.229 53.634C154.229 54.767 154.534 55.6512 155.144 56.3144C155.755 56.9776 156.643 57.3092 157.835 57.3092C158.529 57.3092 159.25 57.171 159.749 56.9776C159.777 56.9776 159.888 56.95 159.833 56.8118ZM166.463 51.9209C166.352 51.4788 166.074 51.0366 165.88 50.8433C165.575 50.5116 165.298 50.2906 165.02 50.1801C164.632 50.0142 164.188 49.9037 163.689 49.9037C163.106 49.9037 162.607 50.0142 162.163 50.2077C161.747 50.4011 161.386 50.6774 161.109 51.009C160.831 51.3407 160.609 51.755 160.498 52.1972C160.36 52.6393 160.304 53.1367 160.304 53.6617C160.304 54.1867 160.388 54.6841 160.498 55.1263C160.637 55.5684 160.859 55.9552 161.164 56.2868C161.469 56.6184 161.858 56.8671 162.329 57.0605C162.801 57.2263 163.356 57.3368 163.994 57.3368C165.325 57.3368 166.019 57.0328 166.296 56.8671C166.352 56.8395 166.407 56.7841 166.324 56.646L166.019 55.817C165.963 55.6789 165.852 55.7342 165.852 55.7342C165.519 55.8447 165.048 56.0657 163.966 56.0657C163.245 56.0657 162.718 55.8447 162.385 55.513C162.052 55.1815 161.885 54.6841 161.858 53.9934H166.463C166.463 53.9934 166.574 53.9934 166.601 53.8827C166.601 53.8552 166.74 52.9433 166.463 51.9209ZM163.578 51.1472C162.967 51.1472 162.551 51.3958 162.274 51.8104C162.08 52.0867 161.969 52.4459 161.913 52.888H165.187C165.159 52.4736 165.076 52.0867 164.881 51.8104C164.576 51.3682 164.16 51.1472 163.578 51.1472Z" fill="#0D9DDA"/>
<path d="M252.488 47.9709L251.739 49.0208C250.961 48.4682 250.101 48.1919 249.187 48.1919C248.548 48.1919 248.049 48.3024 247.688 48.5511C247.328 48.7998 247.162 49.159 247.162 49.6012C247.162 49.9327 247.245 50.2091 247.383 50.4301C247.521 50.6511 247.772 50.817 248.132 50.9828C248.493 51.121 248.991 51.2867 249.657 51.4525C250.712 51.7012 251.461 52.0881 251.96 52.5578C252.46 53.0552 252.709 53.6907 252.709 54.4644C252.709 55.4592 252.348 56.2329 251.599 56.7856C250.85 57.3382 249.935 57.6145 248.825 57.6145C247.355 57.6145 246.135 57.2277 245.137 56.4263L245.913 55.3763C246.356 55.6802 246.8 55.9014 247.245 56.0671C247.688 56.2053 248.187 56.2881 248.742 56.2881C249.436 56.2881 249.963 56.1501 250.351 55.846C250.74 55.542 250.933 55.1276 250.933 54.6026C250.933 54.2434 250.85 53.9671 250.712 53.746C250.573 53.5249 250.323 53.3315 249.991 53.1933C249.657 53.0552 249.131 52.8894 248.465 52.7236C247.411 52.4473 246.634 52.0881 246.162 51.6459C245.69 51.2038 245.441 50.5683 245.441 49.7669C245.441 48.9103 245.775 48.2196 246.44 47.6945C247.106 47.1695 247.993 46.9208 249.103 46.9208C250.435 46.8931 251.544 47.2523 252.488 47.9709ZM236.786 51.5354C236.814 50.5683 237.118 49.7669 237.618 49.1313C238.145 48.4958 238.867 48.1919 239.809 48.1919C240.753 48.1919 241.447 48.4958 241.946 49.1038C242.445 49.7117 242.695 50.5406 242.723 51.5354H236.786ZM244.359 52.8618C244.386 52.696 244.387 52.4749 244.387 52.1433C244.387 50.5683 243.999 49.2972 243.222 48.3301C242.445 47.3629 241.308 46.8931 239.838 46.8931C238.839 46.8931 237.979 47.1142 237.258 47.5563C236.537 47.9984 236.01 48.634 235.621 49.4353C235.261 50.2367 235.066 51.1485 235.066 52.1986C235.066 53.8289 235.51 55.1552 236.37 56.1224C237.258 57.1171 238.45 57.5869 240.032 57.5869C240.809 57.5869 241.53 57.4764 242.195 57.2553C242.833 57.0343 243.444 56.7303 244.027 56.3158L243.278 55.2105C242.778 55.542 242.278 55.7907 241.808 55.9566C241.308 56.1224 240.781 56.2053 240.143 56.2053C239.088 56.2053 238.312 55.9014 237.729 55.2934C237.175 54.6855 236.842 53.8565 236.786 52.8065H244.359V52.8618ZM229.684 57.3382H231.377V51.867C231.377 50.817 231.626 49.988 232.154 49.3248C232.681 48.6616 233.43 48.3577 234.4 48.3577C234.678 48.3577 234.9 48.3577 235.01 48.3853L235.121 46.9208C234.844 46.8931 234.651 46.8655 234.54 46.8655C232.985 46.8655 231.932 47.501 231.322 48.7721C231.294 48.1366 231.239 47.6115 231.182 47.1695H229.546C229.629 47.9432 229.684 48.6893 229.684 49.4353V57.3382ZM218.006 53.3868C218.006 54.6303 218.339 55.6527 218.977 56.4263C219.615 57.2 220.586 57.5869 221.834 57.5869C223.443 57.5869 224.636 56.9513 225.358 55.6802H225.385C225.413 56.3434 225.468 56.8685 225.524 57.283H227.16C227.077 56.5093 227.021 55.7632 227.021 55.0171V47.1695H225.33V52.5854C225.33 53.6355 225.052 54.4921 224.497 55.1828C223.943 55.8737 223.193 56.2329 222.25 56.2329C221.391 56.2329 220.752 55.9566 220.364 55.3763C219.948 54.8236 219.754 54.0499 219.754 53.1381V47.1695H218.006V53.3868ZM213.873 44.0747L212.153 44.6826V47.1695L210.377 47.3629V48.4682H212.18V54.7408C212.18 55.6527 212.43 56.3711 212.957 56.8685C213.484 57.3658 214.178 57.6145 215.065 57.6145C215.676 57.6145 216.203 57.5317 216.647 57.3658L216.397 56.1224C216.092 56.2052 215.759 56.2606 215.398 56.2606C214.4 56.2606 213.9 55.7079 213.9 54.6303V48.4682H216.591V47.1695H213.9V44.0747H213.873ZM200.391 57.3382H202.083V51.5078C202.083 50.5959 202.36 49.8222 202.915 49.2143C203.47 48.6064 204.219 48.3024 205.134 48.3024C206.022 48.3024 206.688 48.5788 207.076 49.1038C207.465 49.6287 207.686 50.2919 207.686 51.121V57.3382H209.379V50.7616C209.379 49.6564 209.073 48.7445 208.435 47.9984C207.825 47.2523 206.854 46.8931 205.578 46.8931C204.746 46.8931 204.025 47.059 203.442 47.3629C202.832 47.6669 202.36 48.0814 202.027 48.6064H202C201.972 47.9984 201.916 47.5287 201.861 47.1695H200.252C200.335 47.9432 200.391 48.6893 200.391 49.4353V57.3382ZM190.848 51.5354C190.876 50.5683 191.181 49.7669 191.68 49.1313C192.207 48.4958 192.928 48.1919 193.872 48.1919C194.815 48.1919 195.508 48.4958 196.008 49.1038C196.507 49.7117 196.757 50.5406 196.784 51.5354H190.848ZM198.449 52.8618C198.477 52.696 198.477 52.4749 198.477 52.1433C198.477 50.5683 198.088 49.2972 197.311 48.3301C196.535 47.3629 195.397 46.8931 193.927 46.8931C192.928 46.8931 192.069 47.1142 191.347 47.5563C190.626 47.9984 190.099 48.634 189.711 49.4353C189.35 50.2367 189.156 51.1485 189.156 52.1986C189.156 53.8289 189.6 55.1552 190.46 56.1224C191.347 57.1171 192.54 57.5869 194.121 57.5869C194.898 57.5869 195.619 57.4764 196.285 57.2553C196.923 57.0343 197.533 56.7303 198.116 56.3158L197.367 55.2105C196.868 55.542 196.368 55.7907 195.897 55.9566C195.397 56.1224 194.87 56.2053 194.232 56.2053C193.178 56.2053 192.401 55.9014 191.819 55.2934C191.264 54.6855 190.931 53.8565 190.876 52.8065H198.449V52.8618ZM188.962 47.1695H187.214L184.301 55.625H184.246L181.222 47.1695H179.391L183.275 57.3382H185.189L188.962 47.1695Z" fill="#032D60"/>
</g>
<defs>
<clipPath id="clip0_692_757">
<rect width="157.238" height="55.3477" fill="white" transform="translate(95.3916 27.6597)"/>
</clipPath>
</defs>
</svg>
