<svg width="346" height="110" viewBox="0 0 346 110" fill="none" xmlns="http://www.w3.org/2000/svg">
<path d="M194.256 76.6622L195.041 79.2557H183.618L191.573 60.5578H187.32C186.839 60.5564 186.452 60.5564 186.185 60.5578H185.915C185.867 60.5578 185.822 60.5592 185.774 60.5637C185.273 60.6123 185.039 60.8175 184.741 61.0954L184.671 60.8602L183.903 58.3284L195.042 58.3198L187.088 77.0178H191.623C192.221 77.0191 192.672 77.0191 192.931 77.0178C193.066 77.0164 193.146 77.015 193.169 77.0119C193.671 76.9633 193.904 76.758 194.202 76.4801L194.257 76.6622H194.256Z" fill="black"/>
<path d="M125.597 58.0532C119.678 58.0532 114.863 62.8688 114.863 68.7877C114.863 74.7066 119.678 79.5222 125.597 79.5222C131.516 79.5222 136.332 74.7066 136.332 68.7877C136.332 62.8688 131.516 58.0532 125.597 58.0532ZM125.597 77.2338C120.94 77.2338 117.151 73.4448 117.151 68.7877C117.151 64.1306 120.94 60.3416 125.597 60.3416C130.254 60.3416 134.043 64.1306 134.043 68.7877C134.043 73.4448 130.254 77.2338 125.597 77.2338Z" fill="black"/>
<path d="M89.5412 58.1929C83.7762 58.1929 79.0859 62.8831 79.0859 68.6481C79.0859 74.4131 83.7762 79.1034 89.5412 79.1034C95.3061 79.1034 99.9964 74.4131 99.9964 68.6481C99.9964 62.8831 95.3061 58.1929 89.5412 58.1929ZM89.5412 76.8749C85.0048 76.8749 81.3148 73.1844 81.3148 68.6481C81.3148 64.1118 85.0053 60.4213 89.5412 60.4213C94.077 60.4213 97.768 64.1118 97.768 68.6481C97.768 73.1844 94.0775 76.8749 89.5412 76.8749Z" fill="black"/>
<path d="M163.669 58.3252C163.409 58.5686 163.114 58.9413 162.954 59.281C162.928 59.3341 162.907 59.3872 162.89 59.4371C162.887 59.4471 162.883 59.4571 162.878 59.4671C162.851 59.5402 162.827 59.6147 162.804 59.6891C162.804 59.6891 162.774 59.7895 162.717 59.9743C162.68 60.096 162.631 60.2567 162.571 60.4515L157.36 77.6338C157.344 77.681 157.33 77.7283 157.318 77.7741C157.128 78.4774 157.349 78.9791 157.517 79.2511H153.942C154.11 78.9787 154.332 78.4774 154.143 77.7723C154.132 77.7264 154.117 77.6806 154.101 77.6334L149.566 62.679L145.03 77.6334H145.029L145.003 77.7224C145.003 77.7224 145.001 77.7251 145.001 77.7264C144.789 78.4556 145.016 78.9728 145.188 79.2511H141.613C141.78 78.9787 142.002 78.4774 141.814 77.7723C141.802 77.7264 141.788 77.6806 141.772 77.6334L136.33 59.6891C136.297 59.5829 136.262 59.4785 136.22 59.3754C136.218 59.3727 136.217 59.3681 136.216 59.3654C136.048 59.0044 135.73 58.5704 135.467 58.3252H138.796C138.614 58.6044 138.357 59.0117 138.541 59.6851C138.549 59.7096 138.556 59.7323 138.563 59.7568L140.979 67.7229L143.399 75.6964L143.401 75.685L143.405 75.6964L146.135 66.6955V66.6941L148.129 60.1205H148.128C148.241 59.7395 148.309 59.5071 148.315 59.4671C148.411 58.9727 148.281 58.6907 148.099 58.3252H150.457V58.3266L155.727 75.6964L155.73 75.685L155.734 75.6964L158.463 66.6955V66.6941L160.458 60.1205C160.57 59.7395 160.637 59.5071 160.645 59.4671C160.741 58.9727 160.611 58.6907 160.429 58.3252H163.669Z" fill="black"/>
<path d="M110.531 79.2635C110.574 79.0229 110.628 78.7046 110.373 78.226C110.333 78.1515 110.286 78.0725 110.23 77.9894C110.208 77.9581 110.185 77.9263 110.162 77.895L105.873 72.194L104.225 70.016H106.366C109.015 70.016 111.253 67.8479 111.209 65.1991C111.164 62.6255 109.058 60.5451 106.473 60.5451L104.225 60.5488V78.0217C104.225 78.0462 104.225 78.0821 104.227 78.1248C104.227 78.1493 104.228 78.1747 104.229 78.2006C104.254 78.5688 104.45 78.9956 104.652 79.2667H101.59C101.708 79.1105 101.822 78.9025 101.902 78.6837C101.922 78.6319 101.94 78.5806 101.954 78.5275C101.999 78.3945 102.01 78.3068 102.015 78.2051V78.1892C102.017 78.1406 102.017 78.0875 102.019 78.0244V59.484C102.019 59.4441 102.016 59.4023 102.011 59.3592C102.01 59.3446 102.009 59.3292 102.007 59.3133C101.991 59.1671 101.959 59.0241 101.91 58.8851L101.718 58.3421H104.225V58.3435L106.337 58.3398C109.993 58.3398 113.118 61.1154 113.393 64.7604C113.643 68.0414 111.516 71.0203 108.444 71.9329L113.949 79.263H110.531V79.2635Z" fill="black"/>
<path d="M167.923 78.1516C167.937 78.5271 168.139 78.9711 168.347 79.249H165.289C165.497 78.9711 165.699 78.5271 165.713 78.1516V59.4251C165.699 59.0496 165.497 58.6069 165.289 58.3276H168.347C168.139 58.6069 167.937 59.0496 167.923 59.4251V78.1516Z" fill="black"/>
<path d="M74.8715 78.0052V72.0863H65.14V78.0052L65.1459 78.1083C65.1459 78.1355 65.1472 78.1628 65.1504 78.1914C65.1758 78.5582 65.3697 78.981 65.5718 79.2502H62.5056C62.6246 79.0927 62.7404 78.882 62.8194 78.66L62.8466 78.5755C62.9038 78.3921 62.9338 78.2 62.9338 78.0079V59.4676C62.9338 59.4272 62.9311 59.3858 62.9265 59.3427C62.9252 59.3286 62.9238 59.3127 62.922 59.2968C62.8734 58.9513 62.6927 58.5731 62.5079 58.3252H65.5654C65.3792 58.5731 65.1985 58.954 65.1513 59.2996C65.15 59.3141 65.1486 59.3286 65.1468 59.3413C65.1422 59.3845 65.1395 59.4258 65.1395 59.4676V69.9546H74.871V59.4676C74.871 59.4258 74.8683 59.3845 74.8637 59.3413C74.8619 59.3286 74.8606 59.3141 74.8592 59.2996C74.812 58.9545 74.6313 58.5731 74.4451 58.3252H77.5026C77.3178 58.5731 77.1371 58.9513 77.0885 59.2968C77.0867 59.3127 77.0854 59.3286 77.084 59.3427C77.0795 59.3858 77.0767 59.4272 77.0767 59.4676V78.0079C77.0767 78.2 77.1067 78.3916 77.1639 78.5755L77.1912 78.66C77.2702 78.882 77.3864 79.0927 77.5049 79.2502H74.4388C74.6408 78.981 74.8342 78.5578 74.8601 78.1914C74.8633 78.1628 74.8646 78.1355 74.8646 78.1083L74.8705 78.0052H74.8715Z" fill="black"/>
<path d="M182.197 58.3198V60.9705C181.943 60.7803 181.576 60.6046 181.211 60.5523C181.198 60.5505 181.185 60.5487 181.172 60.5474C181.137 60.5437 181.103 60.5405 181.069 60.5387C181.067 60.5387 181.064 60.5387 181.062 60.5383C181.027 60.5365 180.992 60.5355 180.958 60.5355H177.29V78.1465C177.304 78.5225 177.505 78.9683 177.715 79.2476H174.654C174.864 78.9683 175.065 78.5225 175.079 78.1465V60.5355H171.411C171.376 60.5355 171.341 60.5365 171.307 60.5383C171.305 60.5383 171.302 60.5387 171.3 60.5387C171.265 60.5405 171.231 60.5437 171.197 60.5474C171.184 60.5487 171.171 60.5505 171.158 60.5523C170.793 60.6046 170.425 60.7803 170.172 60.9705V58.3198H182.197Z" fill="black"/>
<path d="M78.1009 52.2626C77.8317 52.012 77.5034 51.562 77.3399 51.1965C77.3386 51.1924 77.3372 51.1892 77.3354 51.1879C77.3127 51.1348 77.2941 51.0848 77.2782 51.0358C77.2596 50.9813 77.241 50.9254 77.2237 50.8696L71.3007 31.3408H68.4693C68.6514 31.7063 68.7817 31.9887 68.6854 32.4827C68.6096 32.8741 63.1003 50.8982 63.1003 50.8982C63.0776 50.9727 63.053 51.0471 63.0258 51.1207C63.0217 51.1307 63.0172 51.1407 63.0145 51.1507C62.9972 51.2006 62.9759 51.2537 62.95 51.3068C62.7911 51.6465 62.4955 52.0188 62.2349 52.2626H65.5662C65.3859 51.9834 65.1267 51.5765 65.311 50.9027C65.3183 50.8787 65.3255 50.8555 65.3323 50.831L67.0677 45.1101L73.2631 45.1114L74.998 50.831C75.0053 50.8555 75.0125 50.8782 75.0193 50.9027C75.2041 51.5761 74.9462 51.9834 74.7642 52.2626H78.1009ZM67.7142 42.9811L68.3953 40.7399V40.7372L68.3967 40.7327V40.7308L70.1661 34.8951L72.6188 42.9802H67.7142V42.9811Z" fill="black"/>
<path d="M130.681 33.5486V40.6975H137.646C138.027 40.6916 138.487 40.4854 138.772 40.272V43.3218C138.487 43.1084 138.027 42.9018 137.646 42.8964H130.681V50.0543H139.005C139.389 50.0543 139.858 49.8464 140.147 49.6289V52.2596H128.05C128.268 51.9686 128.475 51.5018 128.475 51.1177L128.477 51.184V32.552L128.475 32.4857C128.475 32.1015 128.268 31.6348 128.05 31.3438H140.147V33.9745C139.858 33.7565 139.389 33.549 139.005 33.549H130.681V33.5486Z" fill="black"/>
<path d="M187.835 33.5486V40.6975H194.8C195.181 40.6916 195.641 40.4854 195.926 40.272V43.3218C195.641 43.1084 195.181 42.9018 194.8 42.8964H187.835V50.0543H196.159C196.543 50.0543 197.012 49.8464 197.301 49.6289V52.2596H185.204C185.422 51.9686 185.63 51.5018 185.63 51.1177L185.631 51.184V32.552L185.63 32.4857C185.63 32.1015 185.422 31.6348 185.204 31.3438H197.301V33.9745C197.012 33.7565 196.543 33.549 196.159 33.549H187.835V33.5486Z" fill="black"/>
<path d="M144.843 33.5486V40.6975H151.808C152.189 40.6916 152.649 40.4854 152.934 40.272V43.3218C152.649 43.1084 152.189 42.9018 151.808 42.8964H144.843V50.0543H153.167C153.551 50.0543 154.02 49.8464 154.309 49.6289V52.2596H142.212C142.43 51.9686 142.638 51.5018 142.638 51.1177L142.639 51.184V32.552L142.638 32.4857C142.638 32.1015 142.43 31.6348 142.212 31.3438H154.309V33.9745C154.02 33.7565 153.551 33.549 153.167 33.549H144.843V33.5486Z" fill="black"/>
<path d="M101.862 31.3471L99.1545 31.3398H96.3477L96.5397 31.8829C96.5883 32.0218 96.6214 32.1653 96.6373 32.3115C96.6387 32.3274 96.6401 32.3428 96.6414 32.3574C96.6455 32.4005 96.6487 32.4418 96.6487 32.4822V51.0225C96.6487 51.216 96.6187 51.4067 96.5615 51.5915L96.5229 51.7163C96.5202 51.7204 96.5188 51.7249 96.517 51.729L96.3481 52.2648H101.863C107.657 52.2648 112.371 47.555 112.371 41.7937C112.371 36.0337 107.657 31.3471 101.863 31.3471H101.862ZM101.862 50.0391H98.8549V33.5492H101.862C106.443 33.5492 110.17 37.2474 110.17 41.7937C110.17 46.34 106.443 50.0395 101.862 50.0395V50.0391Z" fill="black"/>
<path d="M213.69 52.2702H211.569C211.787 51.981 211.995 51.5124 211.995 51.1283V44.2423C210.665 40.3035 207.321 36.3533 202.274 33.9106V51.1256C202.274 51.5111 202.482 51.9783 202.7 52.2675H199.642C199.86 51.9783 200.068 51.5111 200.068 51.1256V32.4876C200.068 32.1035 199.86 31.6349 199.642 31.3457H202.178C206.527 33.2127 209.846 36.0673 211.994 39.2238V32.5435C211.994 32.5248 211.994 32.5062 211.993 32.4876C211.993 32.4631 211.991 32.439 211.99 32.4145C211.989 32.39 211.986 32.3646 211.983 32.3401C211.94 31.9891 211.756 31.5995 211.567 31.3457H214.628C214.451 31.5791 214.282 31.9287 214.223 32.257C214.223 32.2597 214.223 32.2629 214.222 32.2642C214.215 32.306 214.209 32.3473 214.208 32.3873C214.205 32.4132 214.203 32.439 214.203 32.4645C214.202 32.4903 214.202 32.5162 214.202 32.5416V51.1278C214.202 51.512 214.41 51.9805 214.628 52.2698H213.689L213.69 52.2702Z" fill="black"/>
<path d="M93.345 52.2702H91.2241C91.4421 51.981 91.6496 51.5124 91.6496 51.1283V44.2423C90.3201 40.3035 86.9757 36.3533 81.9294 33.9106V51.1256C81.9294 51.5111 82.1374 51.9783 82.3549 52.2675H79.2974C79.5153 51.9783 79.7228 51.5111 79.7228 51.1256V32.4876C79.7228 32.1035 79.5148 31.6349 79.2974 31.3457H81.8332C86.1816 33.2127 89.5015 36.0673 91.6491 39.2238V32.5435C91.6491 32.5248 91.6491 32.5062 91.6478 32.4876C91.6478 32.4631 91.6464 32.439 91.645 32.4145C91.6437 32.39 91.641 32.3646 91.6378 32.3401C91.5946 31.9891 91.4112 31.5995 91.2223 31.3457H94.2826C94.1064 31.5791 93.9375 31.9287 93.8785 32.257C93.8785 32.2597 93.8785 32.2629 93.8771 32.2642C93.8698 32.306 93.8644 32.3473 93.8626 32.3873C93.8599 32.4132 93.8585 32.439 93.8585 32.4645C93.8571 32.4903 93.8571 32.5162 93.8571 32.5416V51.1278C93.8571 51.512 94.0651 51.9805 94.2826 52.2698H93.3441L93.345 52.2702Z" fill="black"/>
<path d="M122.955 52.2537C122.998 52.013 123.053 51.6947 122.798 51.2162C122.758 51.1417 122.71 51.0627 122.654 50.9796C122.633 50.9483 122.61 50.9165 122.587 50.8852L118.297 45.1842L116.649 43.0062H118.79C121.44 43.0062 123.678 40.8382 123.633 38.1893C123.589 35.6158 121.482 33.5354 118.898 33.5354L116.65 33.539V51.0119C116.65 51.0364 116.65 51.0723 116.651 51.1149C116.651 51.1395 116.653 51.1649 116.654 51.1908C116.679 51.559 116.875 51.9858 117.077 52.2569H114.015C114.132 52.1007 114.247 51.8927 114.327 51.6739C114.347 51.6221 114.364 51.5708 114.379 51.5177C114.423 51.3846 114.435 51.297 114.439 51.1953V51.1794C114.442 51.1308 114.442 51.0777 114.443 51.0146V32.4743C114.443 32.4343 114.441 32.3925 114.436 32.3494C114.435 32.3349 114.433 32.3194 114.432 32.3035C114.416 32.1573 114.383 32.0143 114.334 31.8754L114.142 31.3323H116.649V31.3337L118.761 31.3301C122.418 31.3301 125.543 34.1056 125.818 37.7507C126.067 41.0316 123.941 44.0105 120.869 44.9232L126.374 52.2532H122.955V52.2537Z" fill="black"/>
<path d="M168.736 47.0368C167.626 53.9904 158.4 54.395 155.88 47.9598C155.731 47.5884 155.567 47.3986 155.251 47.1553C155.897 46.931 157.471 46.3888 158.097 46.1727C158.036 46.4565 158.016 46.8079 158.074 47.1448C158.8 50.4175 162.922 51.2825 165.138 49.3846C167.04 48.0238 167.048 44.7134 165.247 43.3182C164.155 42.4714 162.136 42.0818 160.708 41.6028C157.254 40.5871 155.281 36.5375 157.809 33.2548C160.491 30.0551 165.234 30.6313 167.393 33.7615C167.661 34.1234 167.903 34.5297 168.423 34.9138C167.894 35.1658 166.256 35.9445 165.754 36.1842C165.779 35.9264 165.765 35.5704 165.609 35.1863C164.866 33.6988 163.099 32.8838 161.062 33.5C158.571 34.1978 158.224 37.1818 159.958 38.7369C161.092 39.7912 162.703 40.0095 164.234 40.4318C167.055 41.0284 169.08 44.046 168.736 47.0363V47.0368Z" fill="black"/>
<path d="M183.559 47.0368C182.448 53.9904 173.223 54.395 170.703 47.9598C170.553 47.5884 170.39 47.3986 170.073 47.1553C170.72 46.931 172.294 46.3888 172.919 46.1727C172.859 46.4565 172.839 46.8079 172.897 47.1448C173.623 50.4175 177.745 51.2825 179.961 49.3846C181.863 48.0238 181.87 44.7134 180.07 43.3182C178.978 42.4714 176.959 42.0818 175.531 41.6028C172.077 40.5871 170.104 36.5375 172.632 33.2548C175.314 30.0551 180.057 30.6313 182.216 33.7615C182.483 34.1234 182.726 34.5297 183.246 34.9138C182.716 35.1658 181.079 35.9445 180.577 36.1842C180.601 35.9264 180.588 35.5704 180.432 35.1863C179.689 33.6988 177.922 32.8838 175.885 33.5C173.393 34.1978 173.047 37.1818 174.781 38.7369C175.914 39.7912 177.526 40.0095 179.057 40.4318C181.878 41.0284 183.903 44.046 183.559 47.0363V47.0368Z" fill="black"/>
</svg>
