<svg width="347" height="110" viewBox="0 0 347 110" fill="none" xmlns="http://www.w3.org/2000/svg">
<g clip-path="url(#clip0_700_505)">
<path d="M143.432 68.8731L140.769 64.2631C142.014 61.8775 142.014 59.0654 142.014 55.3658C142.014 50.7558 142.014 47.2983 139.352 44.4978C138.435 43.4968 137.309 42.7088 136.055 42.1891C134.8 41.6695 133.448 41.4308 132.091 41.4897C130.738 41.4599 129.394 41.7119 128.144 42.2298C126.894 42.7476 125.766 43.52 124.83 44.4978C122.168 47.1716 122.168 50.5599 122.168 55.3197C122.168 60.0796 122.03 63.3872 124.83 66.1763C125.759 67.1687 126.886 67.9542 128.138 68.4813C129.391 68.9947 130.738 69.2344 132.091 69.1843C132.848 69.1732 133.602 69.0805 134.339 68.9077L143.432 68.8731ZM128.611 62.9378C127.642 61.7853 127.366 60.5406 127.366 55.3197C127.366 50.0989 127.7 48.8196 128.611 47.7017C129.054 47.2596 129.578 46.9074 130.155 46.6645C130.727 46.4207 131.343 46.2953 131.964 46.2957C132.59 46.2966 133.209 46.4219 133.785 46.6645C134.359 46.9076 134.879 47.2599 135.318 47.7017C136.286 48.8542 136.563 50.0989 136.563 55.3197C136.563 60.5406 136.286 61.8083 135.318 62.9378C134.89 63.3923 134.372 63.7533 133.797 63.9981C133.214 64.2285 132.591 64.342 131.964 64.3323C131.34 64.3448 130.72 64.227 130.143 63.9865C129.567 63.7446 129.045 63.3877 128.611 62.9378Z" fill="black"/>
<path d="M204.722 41.7661H209.874V68.8729H204.722V41.7661Z" fill="black"/>
<path d="M79.8599 69.1496C75.8377 69.1496 72.749 68.3083 70.0752 65.623L73.429 62.2346C74.2955 63.0247 75.3099 63.6351 76.4138 64.0308C77.5176 64.4264 78.6889 64.5993 79.8599 64.5396C82.9371 64.5396 84.6082 63.3871 84.6082 61.1513C84.6241 60.7351 84.5575 60.3199 84.4123 59.9296C84.2716 59.5428 84.0518 59.1895 83.7669 58.8924C83.1001 58.3195 82.269 57.9725 81.3927 57.9012L78.1427 57.4518C76.2143 57.2877 74.3984 56.4752 72.991 55.1468C72.3438 54.4282 71.8427 53.5905 71.5158 52.6804C71.1718 51.7565 71.0189 50.7724 71.0663 49.7876C71.0433 45.0163 74.5354 41.6279 80.4477 41.6279C84.0781 41.6279 86.8786 42.4577 89.126 44.7282L85.7377 47.9897C85.0074 47.3139 84.1448 46.797 83.2045 46.4716C82.2642 46.1463 81.2666 46.0196 80.2748 46.0996C77.4742 46.0996 76.0912 47.667 76.0912 49.5571C76.1134 50.2909 76.4094 50.9899 76.921 51.5164C77.6454 52.1173 78.5165 52.5151 79.445 52.6689L82.6605 53.0838C84.5817 53.1357 86.4161 53.895 87.8122 55.2159C88.5273 55.9916 89.0833 56.9 89.4487 57.8897C89.8062 58.8906 89.9666 59.9512 89.9212 61.013C89.9212 66.2108 85.4611 69.1842 79.8484 69.1842" fill="black"/>
<path d="M97.447 68.8729V41.7661H115.184V46.3761H102.737V52.7725H113.34V57.6245H102.749V64.2744H115.196V68.8844H97.447" fill="black"/>
<path d="M159.751 69.1495C154.288 69.1495 149.828 65.3463 149.828 59.5607V41.7661H155.164V59.3994C155.164 62.5111 156.997 64.3321 159.774 64.3321C162.552 64.3321 164.384 62.4765 164.384 59.3994V41.7661H169.536V59.5377C169.536 65.3002 165.249 69.1265 159.786 69.1265" fill="black"/>
<path d="M194.384 66.1763C193.465 67.1752 192.34 67.961 191.085 68.4786C189.831 68.9963 188.479 69.2332 187.123 69.1728C185.772 69.2096 184.429 68.9619 183.18 68.4456C181.931 67.9294 180.804 67.1562 179.874 66.1763C177.258 63.4909 177.258 60.1026 177.258 55.3197C177.258 50.5368 177.119 47.2522 179.932 44.4632C180.841 43.4732 181.956 42.6942 183.198 42.1805C184.441 41.6669 185.78 41.4311 187.123 41.4897C188.473 41.4708 189.813 41.7267 191.061 42.2418C192.31 42.7569 193.44 43.5206 194.384 44.4862C197.046 47.1716 197.046 50.5599 197.046 55.3428C197.046 60.1257 197.046 63.3872 194.384 66.1763ZM190.477 47.7363C190.039 47.2941 189.517 46.9431 188.942 46.7035C188.368 46.464 187.751 46.3407 187.129 46.3407C186.506 46.3407 185.89 46.464 185.315 46.7035C184.741 46.9431 184.219 47.2941 183.781 47.7363C182.801 48.8888 182.536 50.1335 182.536 55.3543C182.536 60.5751 182.801 61.8429 183.781 62.9608C184.218 63.4058 184.738 63.7593 185.313 64.0006C185.888 64.2419 186.505 64.3662 187.129 64.3662C187.752 64.3662 188.37 64.2419 188.944 64.0006C189.519 63.7593 190.04 63.4058 190.477 62.9608C191.445 61.8083 191.722 60.5751 191.722 55.3543C191.722 50.1335 191.48 48.8196 190.477 47.7017V47.7363Z" fill="black"/>
<path d="M234.629 68.8729L233.096 64.0785H223.588L221.929 68.8729H216.443L226.262 41.7661H230.273L240.057 68.8729H234.629ZM228.325 49.6607L224.971 59.5377H231.679L228.325 49.6607Z" fill="black"/>
<path d="M270.817 41.7661H277.525V48.5428H270.817V41.7661Z" fill="black"/>
<path d="M254.049 63.0413V41.7661H250.695V66.4642L254.049 63.0413Z" fill="black"/>
<path d="M256.4 65.4849L253.046 68.8732H277.525V65.4849H256.4Z" fill="black"/>
<path d="M260.756 56.2991V41.7661H257.402V59.6875L260.756 56.2991Z" fill="black"/>
<path d="M263.107 58.7085L259.742 62.0968H277.525V58.7085H263.107Z" fill="black"/>
<path d="M267.452 49.557V41.7661H264.099V52.9108L267.452 49.557Z" fill="black"/>
<path d="M269.815 51.9321L266.473 55.3205H277.525V51.9321H269.815Z" fill="black"/>
</g>
<defs>
<clipPath id="clip0_700_505">
<rect width="207.45" height="27.66" fill="white" transform="translate(70.0752 41.4897)"/>
</clipPath>
</defs>
</svg>
