<svg width="346" height="110" viewBox="0 0 346 110" fill="none" xmlns="http://www.w3.org/2000/svg">
<g clip-path="url(#clip0_692_596)">
<path d="M197.503 31.1172H149.098V79.5222H197.503V31.1172Z" fill="#E20074"/>
<path d="M167.387 59.5798H162.006V54.2553H167.387V59.5798ZM162.006 42.0088V51.0605H163.619V50.7943C163.619 46.5347 166.039 43.8724 170.614 43.8724H170.88V63.0408C170.88 65.703 169.807 66.7679 167.112 66.7679H166.306V68.6315H180.287V66.7679H179.48C176.793 66.7679 175.712 65.703 175.712 63.0408V43.8724H175.979C180.553 43.8724 182.973 46.5347 182.973 50.7943V51.0605H184.587V42.0088H162.006ZM179.214 59.5798H184.595V54.2553H179.214V59.5798Z" fill="white"/>
</g>
<defs>
<clipPath id="clip0_692_596">
<rect width="48.405" height="48.405" fill="white" transform="translate(149.098 31.1172)"/>
</clipPath>
</defs>
</svg>
