<svg width="346" height="110" viewBox="0 0 346 110" fill="none" xmlns="http://www.w3.org/2000/svg">
<g clip-path="url(#clip0_700_579)">
<path fill-rule="evenodd" clip-rule="evenodd" d="M182.704 65.5444L182.703 88.4605H200.15V83.9355H188.229V65.5444H182.704Z" fill="#001928"/>
<path fill-rule="evenodd" clip-rule="evenodd" d="M170.363 88.4595H175.865V71.9341H170.363V88.4595Z" fill="#001928"/>
<path fill-rule="evenodd" clip-rule="evenodd" d="M161.291 65.5444L158.718 77.0032L156.146 65.5444H151.043L148.471 77.0032L145.898 65.5444H140.797L145.921 88.3654H151.021L153.596 76.9038L156.167 88.3654H161.27L166.394 65.5444H161.291Z" fill="#001928"/>
<path fill-rule="evenodd" clip-rule="evenodd" d="M175.093 22.7874C175.093 23.9154 174.18 24.8288 173.052 24.8288C171.925 24.8288 171.01 23.9154 171.01 22.7874C171.01 21.6594 171.925 20.7446 173.052 20.7446C174.18 20.7446 175.093 21.6594 175.093 22.7874Z" fill="#00C0FF"/>
<path fill-rule="evenodd" clip-rule="evenodd" d="M175.093 48.1605C175.093 49.2885 174.18 50.2019 173.052 50.2019C171.925 50.2019 171.01 49.2885 171.01 48.1605C171.01 47.0325 171.925 46.1191 173.052 46.1191C174.18 46.1191 175.093 47.0325 175.093 48.1605Z" fill="#0066C0"/>
<path fill-rule="evenodd" clip-rule="evenodd" d="M215.774 52.3417C215.774 53.4697 214.858 54.383 213.733 54.383C212.603 54.383 211.69 53.4697 211.69 52.3417C211.69 51.2136 212.605 50.3003 213.731 50.3003C214.858 50.3003 215.774 51.2136 215.774 52.3417Z" fill="#009999"/>
<path fill-rule="evenodd" clip-rule="evenodd" d="M191.641 60.1825C191.641 61.3105 190.727 62.2253 189.599 62.2253C188.47 62.2253 187.556 61.3105 187.556 60.1825C187.556 59.0559 188.471 58.1411 189.599 58.1411C190.727 58.1411 191.641 59.0545 191.641 60.1825Z" fill="#00C0A0"/>
<path fill-rule="evenodd" clip-rule="evenodd" d="M134.415 52.3417C134.415 53.4697 133.502 54.383 132.374 54.383C131.246 54.383 130.331 53.4697 130.331 52.3417C130.331 51.2136 131.246 50.3003 132.374 50.3003C133.502 50.3003 134.415 51.2136 134.415 52.3417Z" fill="#FF0080"/>
<path fill-rule="evenodd" clip-rule="evenodd" d="M158.549 60.1825C158.549 61.3105 157.634 62.2238 156.507 62.2238C155.378 62.2238 154.464 61.3105 154.464 60.1825C154.464 59.0545 155.379 58.1411 156.507 58.1411C157.634 58.1411 158.549 59.0545 158.549 60.1825Z" fill="#D80050"/>
<path fill-rule="evenodd" clip-rule="evenodd" d="M175.688 65.5636C175.688 67.0172 174.51 68.1942 173.054 68.1942C171.597 68.1942 170.416 67.0172 170.416 65.5636C170.416 64.1042 171.597 62.9272 173.054 62.9272C174.51 62.9272 175.688 64.1042 175.688 65.5636Z" fill="#D71718"/>
<path fill-rule="evenodd" clip-rule="evenodd" d="M175.688 65.5636C175.688 67.0172 174.51 68.1942 173.054 68.1942C171.597 68.1942 170.416 67.0172 170.416 65.5636C170.416 64.1042 171.597 62.9272 173.054 62.9272C174.51 62.9272 175.688 64.1042 175.688 65.5636Z" fill="#CC0000"/>
<path fill-rule="evenodd" clip-rule="evenodd" d="M158.073 42.1302C158.073 43.2582 157.16 44.1716 156.032 44.1716C154.905 44.1716 153.989 43.2582 153.989 42.1302C153.989 41.0022 154.905 40.0889 156.032 40.0889C157.16 40.0889 158.073 41.0022 158.073 42.1302Z" fill="#202099"/>
<path fill-rule="evenodd" clip-rule="evenodd" d="M169.339 57.6361C169.339 58.7641 168.426 59.6789 167.298 59.6789C166.17 59.6789 165.256 58.7655 165.256 57.6361C165.256 56.5081 166.17 55.5947 167.298 55.5947C168.426 55.5947 169.339 56.5081 169.339 57.6361Z" fill="#801080"/>
<path fill-rule="evenodd" clip-rule="evenodd" d="M192.114 42.1302C192.114 43.2582 191.201 44.173 190.075 44.173C188.947 44.173 188.033 43.2582 188.033 42.1302C188.033 41.0037 188.947 40.0889 190.075 40.0889C191.201 40.0889 192.114 41.0037 192.114 42.1302Z" fill="#50D8D8"/>
<path fill-rule="evenodd" clip-rule="evenodd" d="M180.85 57.6375C180.85 58.7655 179.935 59.6789 178.809 59.6789C177.681 59.6789 176.766 58.7655 176.767 57.6375C176.766 56.5095 177.681 55.5947 178.809 55.5947C179.935 55.5962 180.85 56.5095 180.85 57.6375Z" fill="#00C0CC"/>
</g>
<defs>
<clipPath id="clip0_700_579">
<rect width="86.4375" height="69.15" fill="white" transform="translate(130.331 20.7446)"/>
</clipPath>
</defs>
</svg>
